<?xml version="1.0" encoding="UTF-8" standalone="no"?>
<!DOCTYPE svg  PUBLIC '-//W3C//DTD SVG 1.1//EN'  'http://www.w3.org/Graphics/SVG/1.1/DTD/svg11.dtd'>
<svg xmlns="http://www.w3.org/2000/svg">
<defs>
<font id="ITCFranklinGothicStd-DmCpIt" horiz-adv-x="460">
<font-face slope="-9.5" underline-position="-50" font-weight="600" descent="-200" panose-1="2 11 8 8 3 5 2 9 2 4" units-per-em="1000" unicode-range="U+0020-FB02" font-stretch="extra-condensed" bbox="-180 -250 868 901" x-height="493" underline-thickness="50" font-family="ITCFranklinGothicStd" ascent="800" font-style="italic" cap-height="667"/>
<missing-glyph d="M116 605v-510l170 255zM146 50h340l-170 255zM346 350l170 -255v510zM316 395l170 255h-340zM66 0v700h500v-700h-500z" horiz-adv-x="566"/>
<glyph glyph-name="f_i" horiz-adv-x="442" unicode="fi" d="M477 674l-23 -136h-131l23 136h131zM316 493h130l-83 -493h-129zM282 493l-17 -108h-57l-65 -385h-131l65 385h-44l18 108h44q14 89 36 135q36 69 139 69q16 0 45 -5l-19 -109h-20q-18 -1 -34 -21t-20 -69h60z"/>
<glyph glyph-name="f_l" horiz-adv-x="442" unicode="fl" d="M345 667h131l-113 -667h-129zM282 493l-17 -108h-57l-65 -385h-131l65 385h-44l18 108h44q14 89 36 135q36 69 139 69q16 0 45 -5l-19 -109h-20q-18 -1 -34 -21t-20 -69h60z"/>
<glyph glyph-name=".notdef" d="M116 605v-510l170 255zM146 50h340l-170 255zM346 350l170 -255v510zM316 395l170 255h-340zM66 0v700h500v-700h-500z" horiz-adv-x="566"/>
<glyph glyph-name=".null" horiz-adv-x="0"/>
<glyph glyph-name="nonmarkingreturn" horiz-adv-x="333"/>
<glyph glyph-name="space" horiz-adv-x="221" unicode=" "/>
<glyph glyph-name="exclam" horiz-adv-x="306" unicode="!" d="M74 149h126l-26 -149h-126zM147 667h151l-115 -465h-75z"/>
<glyph glyph-name="quotedbl" horiz-adv-x="357" unicode='&quot;' d="M311 377h-74l38 289h105zM157 377h-74l38 289h105z"/>
<glyph glyph-name="numbersign" d="M289 393h-65l-23 -108h65zM144 0h-90l44 204h-69l17 81h69l22 108h-68l17 81h69l41 193h89l-40 -193h59l41 193h89l-41 -193h67l-17 -81h-67l-23 -108h67l-17 -81h-67l-43 -204h-91l45 204h-60z" unicode="#"/>
<glyph glyph-name="dollar" d="M274 735h71l-15 -86q44 -13 72 -49q27 -33 41 -88l-96 -39q-5 38 -25 60t-52 22q-30 0 -52 -21t-22 -52q0 -23 14 -40t49 -34l38 -22q52 -32 62 -41q33 -29 47 -61t14 -76q0 -56 -23 -102t-64 -72q-43 -28 -110 -30l-17 -95h-70l18 103q-116 25 -131 183l104 31 q9 -63 28 -89q23 -30 63 -30q32 1 54 23t22 57q0 26 -14 44t-55 40l-49 29q-98 55 -98 155q0 87 50 141t132 59z" unicode="$"/>
<glyph glyph-name="percent" horiz-adv-x="578" unicode="%" d="M473 667h65l-404 -667h-65zM433 258q-22 -2 -38 -46t-16 -102q0 -48 23 -48q22 0 38 45t16 106q0 45 -21 45h-2zM445 331q96 -3 96 -126q0 -96 -40 -157t-103 -61q-48 0 -76 34t-27 94q0 95 41 155t105 61h4zM203 605q-21 -1 -37 -45t-16 -102q0 -50 23 -50q22 0 38 46 t16 107q0 44 -22 44h-2zM215 679q96 -3 96 -126q0 -96 -40 -157t-103 -61q-48 0 -76 34t-27 94q0 95 41 155t105 61h4z"/>
<glyph glyph-name="ampersand" horiz-adv-x="562" unicode="&amp;" d="M150 179q0 -36 19 -57t52 -21q29 0 65 26q-34 59 -77 159q-59 -39 -59 -107zM264 512q0 -45 17 -87q66 36 66 99q0 59 -40 59q-43 0 -43 -71zM444 382l97 -20q-20 -77 -45 -124q-27 -52 -70 -97q20 -28 42 -28q12 0 34 10l-20 -118q-24 -11 -50 -11q-39 0 -65 20 q-9 7 -32 32q-31 -25 -46 -33q-46 -26 -100 -26q-76 -1 -121 49t-45 132q1 74 37 124t111 86q-27 73 -27 122q0 79 48 129t125 50q65 0 104 -41t39 -108q0 -36 -20 -79q-17 -35 -43 -59t-78 -53q22 -59 54 -117q28 43 44 80q15 37 27 80z"/>
<glyph glyph-name="quotesingle" horiz-adv-x="204" unicode="&apos;" d="M86 378l38 289h105l-69 -289h-74z"/>
<glyph glyph-name="parenleft" horiz-adv-x="306" unicode="(" d="M247 667h95q-54 -61 -78 -103t-56 -131q-56 -150 -56 -312q0 -68 9 -131q10 -68 41 -157h-85q-15 28 -19 39q-65 143 -65 310q0 181 104 347q31 49 51 75t59 63z"/>
<glyph glyph-name="parenright" horiz-adv-x="306" unicode=")" d="M60 -167h-96q54 61 78 103t56 130q57 153 57 312q0 64 -11 132q-10 75 -40 157h86q8 -14 19 -40q64 -139 64 -309q0 -180 -104 -347q-30 -50 -50 -75t-59 -63z"/>
<glyph glyph-name="asterisk" d="M258 673l80 -13l-30 -115l100 49l25 -78l-104 -28l91 -64l-48 -65l-80 82l-8 -120l-79 13l29 116l-100 -50l-25 78l104 29l-90 63l48 66l79 -82z" unicode="*"/>
<glyph glyph-name="plus" d="M299 386h126v-105h-126v-129h-110v129h-127v105h127v129h110v-129z" unicode="+"/>
<glyph glyph-name="comma" horiz-adv-x="221" unicode="," d="M28 149h132l-22 -133l-100 -170h-57l78 154h-56z"/>
<glyph glyph-name="hyphen" horiz-adv-x="255" unicode="-" d="M46 328h190l-19 -108h-189z"/>
<glyph glyph-name="period" horiz-adv-x="221" unicode="." d="M28 149h132l-25 -149h-132z"/>
<glyph glyph-name="slash" horiz-adv-x="357" unicode="/" d="M328 667h80l-414 -840h-79z"/>
<glyph glyph-name="zero" d="M169 161q-1 -37 9 -53t32 -17q39 0 57 70q17 66 30 186q14 123 14 153q0 74 -34 74h-2q-29 -2 -44 -32t-32 -123q-30 -163 -30 -258zM42 216q0 172 50 305q59 157 194 157q152 0 152 -222q0 -198 -66 -343q-28 -61 -74 -94t-105 -33q-151 0 -151 230z" unicode="0"/>
<glyph glyph-name="one" d="M380 670l-94 -557h101l-20 -113h-326l19 113h96l61 366q-53 -24 -124 -24l20 125q41 1 63 6t46 20q33 19 57 64h101z" unicode="1"/>
<glyph glyph-name="two" d="M385 121l-21 -121h-363l22 132q55 38 115 96t96 104q71 87 71 166q0 63 -45 63q-29 0 -45 -28q-13 -23 -29 -99l-123 32q10 52 17 74t24 51q51 88 163 88q81 0 127 -47t45 -132q0 -106 -69 -190q-29 -36 -87 -89q-53 -50 -122 -100h224z" unicode="2"/>
<glyph glyph-name="three" d="M179 488l-107 37q44 153 197 154q78 0 120 -42t42 -119q0 -79 -42 -127q-14 -17 -29 -27t-45 -20q35 -17 54 -41q32 -41 32 -100q0 -42 -13 -80q-46 -136 -190 -136q-99 0 -147 62q-21 26 -29 51t-13 77l111 27q12 -103 74 -103q32 0 52 28t19 75q1 47 -21 68t-70 21h-17 l17 104q4 -1 16 -1h15q35 0 54 12q17 10 29 40t12 65q0 62 -47 62q-25 0 -43 -20t-31 -67z" unicode="3"/>
<glyph glyph-name="four" d="M235 256l46 247l-161 -247h115zM340 149l-25 -149h-124l25 149h-205l19 114l268 407h128l-68 -408h63l-18 -113h-63z" unicode="4"/>
<glyph glyph-name="five" d="M454 667l-26 -119h-209l-34 -151q25 25 45 33t47 8q65 0 101 -48t36 -134q0 -123 -58 -196t-156 -73q-95 0 -143 65q-17 24 -24 44t-12 64l111 30q9 -89 68 -89q78 0 78 151q0 82 -56 82q-24 0 -38 -14t-25 -44l-95 39l77 352h313z" unicode="5"/>
<glyph glyph-name="six" d="M237 319q-31 0 -49 -38t-17 -107q1 -44 11 -63t33 -19q28 0 40 26q22 48 22 135q0 66 -40 66zM447 493l-116 -20q0 55 -11 79t-36 23q-22 1 -38 -17t-28 -58q-11 -33 -18 -61q-4 -16 -13 -77q24 34 47 48t54 13q56 -1 90 -47t34 -125q0 -118 -54 -191t-144 -73 q-82 0 -126 57t-44 167q0 74 18 166t44 158q28 69 78 107t114 37q147 0 149 -186z" unicode="6"/>
<glyph glyph-name="seven" d="M88 546l23 121h349l-17 -109q-33 -41 -51 -69t-51 -92q-105 -211 -118 -397h-151q20 106 38 162t56 132q43 85 94 157q28 40 76 95h-248z" unicode="7"/>
<glyph glyph-name="eight" d="M132 169q0 -43 20 -67t55 -25q35 1 55 27t20 70q0 36 -18 60t-64 53q-68 -41 -68 -118zM208 499q0 -38 23 -64q13 -16 46 -34q51 39 51 115q0 34 -14 54t-38 20q-30 0 -49 -26t-19 -65zM18 142q0 87 55 144q21 22 69 50q-56 60 -56 138q0 91 56 148t145 57q71 -1 113 -41 t42 -110q0 -124 -107 -166q69 -62 69 -155q0 -99 -60 -159t-157 -61q-81 1 -125 41t-44 114z" unicode="8"/>
<glyph glyph-name="nine" d="M196 427q0 -74 44 -74q24 0 38 23q24 44 24 130q0 69 -42 69h-2q-27 -1 -41 -30q-21 -46 -21 -118zM20 132l102 46q13 -86 65 -86q32 0 50 26q26 38 47 181q-35 -51 -89 -51q-61 0 -98 48t-37 130q0 112 57 182t149 71q69 0 111 -45q52 -56 52 -188q0 -183 -68 -325 q-64 -134 -185 -134q-67 0 -107 37q-19 18 -29 40t-20 68z" unicode="9"/>
<glyph glyph-name="colon" horiz-adv-x="221" unicode=":" d="M85 493h133l-25 -149h-133zM28 149h132l-25 -149h-132z"/>
<glyph glyph-name="semicolon" horiz-adv-x="221" unicode=";" d="M85 493h133l-25 -149h-133zM28 149h132l-22 -133l-100 -170h-57l78 154h-56z"/>
<glyph glyph-name="less" d="M64 385l358 209v-121l-246 -140l246 -140v-120l-358 209v103z" unicode="&lt;"/>
<glyph glyph-name="equal" d="M426 199h-363v106h363v-106zM426 362h-363v105h363v-105z" unicode="="/>
<glyph glyph-name="greater" d="M64 594l358 -209v-103l-358 -209v120l246 140l-246 140v121z" unicode="&gt;"/>
<glyph glyph-name="question" horiz-adv-x="425" unicode="?" d="M122 149h126l-24 -149h-126zM171 473l-97 36q14 47 23 67t27 43q48 60 143 60q75 0 119 -44t44 -119q0 -70 -34 -117q-26 -36 -80 -75q-38 -27 -50 -49t-18 -73h-115q4 49 12 82q9 34 27 58t29 34t40 34q33 26 45 49t12 58q0 60 -48 60q-27 0 -45 -24t-34 -80z"/>
<glyph glyph-name="at" horiz-adv-x="579" unicode="@" d="M271 280q0 -55 21 -55q19 0 28 24q19 53 19 122q0 53 -26 53q-20 0 -31 -48t-11 -96zM435 504l-28 -201q-5 -45 -5 -59q0 -34 27 -34q16 0 26 10t12 18q22 48 22 141q-1 27 -3 53t-12 62t-28 60q-18 26 -50 44t-77 18q-95 0 -145 -82t-50 -201q0 -146 70 -223 q52 -58 141 -58q68 0 124 27l21 -64q-68 -34 -148 -34q-142 1 -216 101t-74 249t74 253t203 104q63 0 112 -26t77 -68q28 -44 44 -96q14 -52 14 -110q0 -60 -14 -114t-50 -95q-35 -41 -85 -41q-36 0 -53 15t-27 39q-7 -18 -12 -26t-19 -18t-33 -10q-39 0 -61 38t-22 108 q0 89 31 158t87 69q23 0 35 -12t21 -35l6 40h65z"/>
<glyph glyph-name="A" d="M187 260h80l-4 172v22v30v22l-5 -23l-8 -24l-6 -21zM366 667l46 -667h-136l-5 146h-123l-52 -146h-132l262 667h140z" unicode="A"/>
<glyph glyph-name="B" horiz-adv-x="494" unicode="B" d="M193 294l-31 -184h44q50 0 76 24q33 35 33 84q0 76 -91 76h-31zM238 562l-28 -168h28q55 0 78 27q26 31 26 75q0 66 -80 66h-24zM11 0l111 667h173q89 -1 135 -41t47 -117q0 -79 -48 -124q-25 -21 -76 -37q44 -21 62 -42q35 -40 35 -105q0 -44 -19 -87q-27 -58 -79 -86 t-140 -28h-201z"/>
<glyph glyph-name="C" d="M460 427l-127 -8q2 28 2 54q-1 47 -11 67t-35 21q-39 0 -60 -68q-19 -65 -33 -152t-14 -150q0 -85 49 -85q27 0 45 30t31 96l124 -24q-25 -114 -77 -168t-138 -53q-88 1 -134 61t-46 174q0 88 20 180t53 157q62 120 183 120q82 0 126 -52t44 -152q0 -21 -2 -48z" unicode="C"/>
<glyph glyph-name="D" horiz-adv-x="476" unicode="D" d="M237 558l-75 -448h28q71 0 103 90q39 109 39 235q0 65 -17 94t-56 29h-22zM11 0l111 667h129q61 0 100 -12q29 -9 57 -37q59 -59 59 -199q0 -210 -89 -331q-36 -48 -84 -68t-125 -20h-158z"/>
<glyph glyph-name="E" horiz-adv-x="425" unicode="E" d="M122 667h345l-18 -114h-213l-25 -156h174l-20 -110h-173l-28 -170h219l-21 -117h-351z"/>
<glyph glyph-name="F" horiz-adv-x="391" unicode="F" d="M122 667h330l-20 -114h-196l-28 -170h161l-18 -111h-161l-46 -272h-133z"/>
<glyph glyph-name="G" horiz-adv-x="476" unicode="G" d="M273 346h184l-58 -346h-60l-6 69q-42 -82 -129 -82q-168 0 -168 237q0 173 64 316q63 139 198 139q82 0 128 -48t46 -132q0 -6 -2 -34l-122 -14v13t2 10v9q0 43 -12 63t-41 20q-34 0 -54 -29q-30 -39 -52 -152q-19 -110 -19 -188q0 -52 14 -74t45 -22q37 -1 57 31t31 104 h-64z"/>
<glyph glyph-name="H" horiz-adv-x="477" unicode="H" d="M494 667l-111 -667h-134l48 284h-106l-47 -284h-133l111 667h134l-45 -266h105l45 266h133z"/>
<glyph glyph-name="I" horiz-adv-x="238" unicode="I" d="M122 667h134l-112 -667h-133z"/>
<glyph glyph-name="J" horiz-adv-x="306" unicode="J" d="M190 667h133l-76 -459q-15 -90 -40 -137q-44 -84 -158 -84q-38 0 -82 13l19 115q28 -9 46 -9q36 0 55 26q18 22 29 87z"/>
<glyph glyph-name="K" d="M122 667h134l-41 -240l147 240h145l-166 -255l78 -412h-147l-45 300l-43 -60l-40 -240h-133z" unicode="K"/>
<glyph glyph-name="L" horiz-adv-x="374" unicode="L" d="M122 667h134l-92 -550h171l-19 -117h-305z"/>
<glyph glyph-name="M" horiz-adv-x="647" unicode="M" d="M11 0l111 667h182l12 -349q1 -32 1 -65v-33q19 67 37 115l124 332h186l-111 -667h-131l53 315q15 89 37 191q-4 -8 -20 -54t-21 -60l-155 -392h-89l-22 339q-2 29 -2 63q0 51 4 115q-2 -10 -7 -49q-4 -38 -10 -76t-10 -58l-56 -334h-113z"/>
<glyph glyph-name="N" horiz-adv-x="494" unicode="N" d="M11 0l111 667h135l68 -282q7 -33 16 -101q1 16 7 66t10 77l39 240h114l-112 -667h-106l-83 350q-9 41 -18 106q-1 -8 -6 -66t-9 -81l-53 -309h-113z"/>
<glyph glyph-name="O" horiz-adv-x="476" unicode="O" d="M170 173q0 -72 45 -72t70 78q19 59 33 149t13 157q0 45 -10 63t-34 18q-38 0 -63 -67q-22 -63 -38 -159t-16 -167zM35 223q0 166 57 303q30 73 84 113t122 40h6q162 -5 162 -228q0 -200 -74 -342q-63 -122 -186 -122q-84 0 -128 60t-43 176z"/>
<glyph glyph-name="P" horiz-adv-x="442" unicode="P" d="M204 362h46q81 0 81 122q-1 38 -15 56t-46 17h-33zM122 667h150q72 0 113 -22q39 -19 60 -62t21 -103q0 -103 -58 -166t-154 -63h-68l-42 -251h-133z"/>
<glyph glyph-name="Q" horiz-adv-x="476" unicode="Q" d="M290 566q-38 0 -63 -67q-22 -63 -38 -159t-16 -166q0 -73 45 -73t70 78q18 60 32 150t14 157q0 44 -10 62t-34 18zM409 -17l-11 -110q-40 -8 -64 -8q-48 0 -74 26t-27 73q0 13 2 25q-26 -2 -34 -2q-77 0 -120 62t-43 174q0 174 57 303q30 73 84 113t121 40 q169 0 169 -228q0 -202 -74 -342q-24 -43 -65 -80v-10q0 -41 42 -41q9 0 37 5z"/>
<glyph glyph-name="R" horiz-adv-x="476" unicode="R" d="M206 372h34q98 0 98 117q0 73 -70 73h-30zM122 667h170q75 0 115 -27q66 -41 66 -153q0 -97 -51 -154q-20 -23 -64 -43l54 -290h-146l-32 267h-45l-45 -267h-133z"/>
<glyph glyph-name="S" horiz-adv-x="443" unicode="S" d="M440 515l-114 -39q-17 85 -69 85q-25 -1 -41 -19t-16 -46q0 -18 10 -36q15 -25 77 -66q60 -40 88 -70q42 -46 42 -115q-1 -98 -59 -160t-149 -62q-86 0 -136 52t-59 150l118 23q3 -45 19 -71q22 -35 64 -35q31 0 49 20t18 57q0 27 -14 45t-53 44q-55 37 -73 51t-34 32 q-39 44 -39 109q1 92 55 154t135 61q69 -1 117 -43t64 -121z"/>
<glyph glyph-name="T" horiz-adv-x="391" unicode="T" d="M85 667h361l-19 -118h-114l-92 -549h-133l92 549h-115z"/>
<glyph glyph-name="U" horiz-adv-x="477" unicode="U" d="M116 667h132l-64 -385q-10 -60 -10 -61q-4 -34 -4 -52q0 -63 55 -63q37 0 56 34q19 39 36 146l65 381h118l-64 -385q-19 -113 -35 -160q-45 -135 -193 -135q-82 -1 -124 45t-43 133q0 59 11 121z"/>
<glyph glyph-name="V" horiz-adv-x="425" unicode="V" d="M100 0l-29 667h141l6 -373q1 -24 1 -47q0 -35 -2 -69q12 51 38 136l112 353h120l-236 -667h-151z"/>
<glyph glyph-name="W" horiz-adv-x="664" unicode="W" d="M100 0l-24 667h137l-3 -301q0 -25 -2 -66t-2 -61q23 91 30 112l104 316h124l6 -301v-127q25 104 34 135l89 293h123l-227 -667h-116l-13 351q-1 15 -1 34q0 29 2 69q-18 -72 -27 -98l-121 -356h-113z"/>
<glyph glyph-name="X" horiz-adv-x="442" unicode="X" d="M76 667h148l32 -172l89 172h139l-186 -312l96 -355h-147l-42 199l-106 -199h-134l198 344z"/>
<glyph glyph-name="Y" horiz-adv-x="425" unicode="Y" d="M65 667h136l51 -241l118 241h126l-203 -388l-47 -279h-138l47 286z"/>
<glyph glyph-name="Z" horiz-adv-x="425" unicode="Z" d="M101 667h366l-17 -104l-294 -446h229l-20 -117h-385l17 106l296 447h-210z"/>
<glyph glyph-name="bracketleft" horiz-adv-x="289" unicode="[" d="M135 667h173l-10 -61h-60l-119 -713h68l-10 -60h-182z"/>
<glyph glyph-name="backslash" horiz-adv-x="357" unicode="\" d="M178 667l249 -834h-82l-249 834h82z"/>
<glyph glyph-name="bracketright" horiz-adv-x="289" unicode="]" d="M155 -167h-174l10 60h60l119 713h-68l10 61h181z"/>
<glyph glyph-name="asciicircum" d="M474 316h-121l-110 246l-110 -246h-120l179 358h103z" unicode="^"/>
<glyph glyph-name="underscore" horiz-adv-x="500" unicode="_" d="M0 -75h500v-50h-500v50z"/>
<glyph glyph-name="grave" d="M217 713l135 -117l-35 -48l-150 95z" unicode="`"/>
<glyph glyph-name="a" horiz-adv-x="408" unicode="a" d="M143 130q0 -51 38 -51q40 0 60 116l6 43q-35 -6 -57 -19q-21 -13 -34 -39t-13 -50zM177 339l-116 19q35 149 180 149q65 0 105 -36t40 -95q0 -24 -11 -88l-29 -178q-10 -50 -10 -87q0 -1 2 -23h-112q-3 16 -3 26q1 2 1 10v14q-12 -16 -33 -35q-25 -21 -69 -21 q-52 0 -82 31t-30 86q0 30 13 67q22 61 72 91t146 39l18 2q8 38 8 60q0 50 -35 50q-29 0 -42 -30q-8 -18 -13 -51z"/>
<glyph glyph-name="b" horiz-adv-x="391" unicode="b" d="M248 339q0 65 -28 65q-19 0 -30 -23q-5 -12 -12 -44l-29 -170q-1 -5 -2 -13t-2 -13t-1 -8q0 -19 9 -32t23 -13q29 0 48 86q24 111 24 165zM-5 0l112 667h126l-37 -218q20 29 37 40t42 11q49 0 77 -42t28 -116q0 -100 -39 -214q-45 -134 -142 -134q-45 0 -70 25 q-16 16 -26 50q-20 -36 -35 -69h-73z"/>
<glyph glyph-name="c" horiz-adv-x="374" unicode="c" d="M369 315l-111 -8q2 32 2 33q0 71 -36 71q-34 0 -50 -65q-18 -75 -26 -152q-5 -60 -5 -65q0 -47 34 -47q45 0 66 108l108 -20q-17 -90 -64 -137t-120 -47q-151 0 -151 190q0 151 58 241t154 90q66 0 105 -42t39 -114q0 -9 -3 -36z"/>
<glyph glyph-name="d" horiz-adv-x="391" unicode="d" d="M244 340q2 16 2 23q0 43 -28 43q-18 0 -30 -29q-16 -38 -29 -112q-15 -77 -15 -124q0 -53 26 -53q31 0 48 98zM298 667h126l-111 -667h-113l10 56q-30 -36 -50 -49t-47 -13q-49 0 -75 41t-26 119q0 142 51 244t123 102q51 0 74 -57z"/>
<glyph glyph-name="e" horiz-adv-x="391" unicode="e" d="M243 302q4 39 4 68q0 50 -30 50q-43 0 -62 -118h88zM360 224h-214l-1 -11q-2 -37 -2 -57q0 -42 8 -58t28 -16q22 0 34 18t25 68l105 -20q-14 -52 -28 -79q-45 -83 -148 -83q-151 0 -151 198q0 146 58 234t151 89q141 0 141 -183q0 -39 -6 -100z"/>
<glyph glyph-name="f" horiz-adv-x="255" unicode="f" d="M293 493l-18 -108h-64l-65 -385h-130l64 385h-44l17 108h45q14 89 36 135q36 69 139 69q27 0 62 -5l-19 -110h-14t-15 1q-27 -1 -39 -17t-23 -73h68z"/>
<glyph glyph-name="g" horiz-adv-x="409" unicode="g" d="M116 11q-35 -18 -35 -54q0 -48 72 -48q41 1 65 15t24 37q0 31 -32 37q-38 11 -94 13zM234 427q-48 -1 -48 -99q0 -30 8 -42t27 -12q47 0 47 103q0 50 -33 50h-1zM418 604l-9 -92q-13 1 -24 1q-19 -1 -28 -9t-17 -34q48 -38 48 -111t-44 -119t-118 -46q-30 0 -61 11 q-32 -24 -32 -44q0 -12 7 -19q11 -15 73 -22q9 -1 21 -3l12 -2q51 -9 75 -31q33 -33 33 -86q0 -80 -60 -128t-162 -48q-74 0 -115 28t-41 80q0 36 20 60t67 44q-41 28 -41 80q0 72 87 119q-5 3 -9 9t-5 7q-30 35 -30 90q0 73 47 121t119 47q33 0 62 -13q15 62 37 87t63 25 q13 0 25 -2z"/>
<glyph glyph-name="h" horiz-adv-x="391" unicode="h" d="M237 667l-36 -220q36 60 91 60q40 -1 62 -25t23 -67q0 -31 -10 -87l-54 -328h-124l52 315q7 40 7 61q0 28 -20 28t-34 -26t-23 -86l-49 -292h-127l112 667h130z"/>
<glyph glyph-name="i" horiz-adv-x="204" unicode="i" d="M85 538l23 136h130l-23 -136h-130zM77 493h131l-83 -493h-130z"/>
<glyph glyph-name="j" horiz-adv-x="204" unicode="j" d="M85 538l23 136h130l-23 -136h-130zM77 493h131l-79 -470q-16 -101 -38 -143q-32 -63 -127 -63q-23 0 -65 7l17 109q18 -2 26 -2q25 1 36 19t21 76z"/>
<glyph glyph-name="k" horiz-adv-x="391" unicode="k" d="M107 667h130l-52 -316l106 142h132l-140 -165l73 -328h-134l-39 236l-22 -27l-35 -209h-131z"/>
<glyph glyph-name="l" horiz-adv-x="204" unicode="l" d="M107 667h130l-112 -667h-130z"/>
<glyph glyph-name="m" horiz-adv-x="579" unicode="m" d="M-5 0l83 493h120l-10 -59q20 40 44 56t59 17q36 1 55 -17t29 -60q23 42 46 60t57 17q40 0 64 -24t23 -65q0 -30 -14 -110l-51 -308h-124l52 308q8 42 8 64q0 33 -24 33q-20 -1 -30 -21t-20 -76l-51 -308h-123l51 308q10 53 10 68q0 28 -22 28q-37 0 -54 -101l-51 -303 h-127z"/>
<glyph glyph-name="n" horiz-adv-x="391" unicode="n" d="M-5 0l83 493h120l-10 -59q25 40 48 56t54 17q42 0 64 -25t22 -70q0 -30 -13 -108l-50 -304h-124l50 304q8 52 8 72q0 28 -21 28q-18 0 -30 -22t-22 -78l-52 -304h-127z"/>
<glyph glyph-name="o" horiz-adv-x="391" unicode="o" d="M247 364q0 47 -27 47q-20 1 -31 -21t-22 -82q-23 -131 -23 -185q0 -41 27 -41q20 0 31 24t24 92q21 105 21 166zM17 190q0 146 56 232t151 85h11q59 0 99 -51t40 -144q0 -117 -39 -207q-23 -55 -67 -87t-99 -32q-152 0 -152 204z"/>
<glyph glyph-name="p" horiz-adv-x="391" unicode="p" d="M180 348l-32 -188q-4 -21 -4 -28q0 -20 8 -32t22 -12q28 0 50 83q21 84 21 164q-1 39 -7 55t-22 15q-10 0 -20 -11t-12 -25zM78 493h119l-10 -62q37 69 87 69q49 0 76 -45t27 -125q0 -144 -52 -254q-21 -39 -51 -61t-67 -22q-21 0 -32 5q-15 6 -24 15t-22 29l-35 -209 h-126z"/>
<glyph glyph-name="q" horiz-adv-x="391" unicode="q" d="M236 322q6 26 6 43t-8 28t-18 11q-26 0 -40 -53q-32 -112 -32 -202q0 -61 26 -61q16 0 26 23q9 22 19 83zM316 498h81q-8 -29 -23 -114l-15 -88l-77 -463h-127l35 208q-15 -23 -30 -33q-21 -14 -49 -14q-47 0 -73 41t-26 118q0 147 52 247t131 100q58 0 89 -71 q18 28 32 69z"/>
<glyph glyph-name="r" horiz-adv-x="289" unicode="r" d="M78 493h115l-18 -105q29 61 53 86q28 26 66 26q14 0 27 -2l-24 -141q-10 2 -21 2q-50 0 -78 -47t-48 -168l-24 -144h-131z"/>
<glyph glyph-name="s" horiz-adv-x="357" unicode="s" d="M351 381l-93 -34q-8 35 -21 51t-36 16q-17 0 -29 -14t-13 -32q0 -15 7 -26q7 -14 49 -37q46 -26 71 -48q43 -40 43 -104q1 -75 -45 -121t-122 -46q-73 0 -115 33t-56 102l104 29q19 -71 65 -71q22 -1 36 15t13 39q0 17 -11 30t-40 30l-37 22q-81 48 -81 131q0 71 47 116 t121 45q122 0 143 -126z"/>
<glyph glyph-name="t" horiz-adv-x="289" unicode="t" d="M306 493l-19 -108h-74l-33 -197q-7 -52 -7 -56q0 -32 43 -32q15 0 33 3l-18 -108q-42 -9 -80 -9q-55 0 -85 28t-29 79q0 16 13 98l32 194h-52l18 108h58l27 140l122 4l-25 -144h76z"/>
<glyph glyph-name="u" horiz-adv-x="392" unicode="u" d="M390 494l-83 -494h-118l9 56q-24 -36 -44 -51q-25 -19 -57 -19q-39 0 -61 26t-23 73q0 38 9 92l53 317h124l-53 -317q-9 -58 -9 -66q0 -22 22 -22q18 0 30 21q13 21 24 87l50 297h127z"/>
<glyph glyph-name="v" horiz-adv-x="358" unicode="v" d="M374 493l-187 -493h-109l-40 493h126l5 -192q2 -102 2 -122q5 28 36 125l60 189h107z"/>
<glyph glyph-name="w" horiz-adv-x="546" unicode="w" d="M565 493l-180 -493h-111l-3 236q0 13 5 101q-7 -34 -32 -120l-66 -217h-109l-27 493h123l2 -205q0 -45 -6 -131q11 53 33 125l65 211h114l-1 -212q0 -28 -5 -116q11 56 34 129l66 199h98z"/>
<glyph glyph-name="x" horiz-adv-x="358" unicode="x" d="M392 493l-147 -223l73 -270h-134l-28 132l-82 -132h-117l164 245l-69 248h135l24 -111l67 111h114z"/>
<glyph glyph-name="y" horiz-adv-x="389" unicode="y" d="M398 493l-197 -497q-28 -70 -45 -98t-44 -48q-33 -25 -90 -25q-19 0 -33 3l13 112q20 -2 22 -2q36 0 54 18t33 69l-57 468h130l11 -179q1 -12 1 -31t2 -45v-38q13 64 29 114l61 179h110z"/>
<glyph glyph-name="z" horiz-adv-x="340" unicode="z" d="M350 493l-17 -99l-194 -296h149l-16 -98h-290l17 96l196 298h-138l17 99h276z"/>
<glyph glyph-name="braceleft" horiz-adv-x="289" unicode="{" d="M20 221l10 61q14 1 22 5q8 3 20 23q10 20 16 56l26 155q6 39 10 59t18 41q13 22 34 33q16 9 38 11t92 2l-9 -55h-5q-36 0 -46 -14q-11 -16 -21 -77l-26 -155q-11 -60 -27 -82t-50 -36q14 -6 22 -10t16 -18q8 -13 7 -33q0 -13 -8 -61l-19 -109q-11 -64 -11 -90 q1 -19 7 -29t14 -12t25 -3l-9 -50q-71 2 -91 5t-35 14q-25 20 -25 59q0 19 14 106l20 115q4 28 4 46q1 20 -7 30t-26 13z"/>
<glyph glyph-name="bar" horiz-adv-x="500" unicode="|" d="M328 750v-1000h-128v1000h128z"/>
<glyph glyph-name="braceright" horiz-adv-x="289" unicode="}" d="M269 279l-10 -61q-15 -1 -23 -5q-8 -3 -18 -23t-17 -56l-26 -155q-7 -39 -11 -59t-17 -41q-13 -22 -34 -33q-15 -9 -37 -11t-93 -2l9 55h5q36 0 46 14q11 16 21 77l26 155q10 60 26 82t51 36q-15 6 -23 10t-14 18q-8 13 -8 33q0 13 8 61l19 109q11 64 11 90q0 19 -6 29 t-14 12t-26 3l9 50q71 -2 91 -5t35 -14q25 -20 25 -59q0 -19 -14 -106l-20 -115q-4 -28 -4 -46q0 -20 8 -30t25 -13z"/>
<glyph glyph-name="asciitilde" d="M77 238l-68 53q32 65 47 83q38 46 98 46q30 0 98 -25q61 -23 82 -23q26 0 41 14t28 38l69 -49q-12 -27 -22 -43t-28 -38t-44 -34t-57 -12q-25 0 -97 26q-63 22 -78 22q-19 0 -33 -10t-20 -18q-6 -10 -16 -30z" unicode="~"/>
<glyph glyph-name="uni00A0" horiz-adv-x="221" unicode=" "/>
<glyph glyph-name="exclamdown" horiz-adv-x="306" unicode="¡" d="M232 343h-126l25 150h126zM158 -174h-152l116 465h76z"/>
<glyph glyph-name="cent" d="M244 98l-21 -127h-62l23 136q-50 20 -73 65t-23 124q0 128 55 211q44 64 120 74l17 96h60l-16 -104q91 -29 93 -170l-108 -9q1 10 1 22v14q0 50 -28 50q-19 0 -30 -24t-24 -92q-13 -70 -13 -117q0 -39 29 -39q17 0 27 18t19 60l104 -19q-30 -156 -150 -169z" unicode="¢"/>
<glyph glyph-name="sterling" d="M340 404l-16 -99h-77q-5 -125 -92 -192h67q45 0 71 15q40 23 55 90l102 -40q-16 -48 -26 -70t-34 -48q-27 -31 -68 -46q-37 -14 -108 -14h-258l18 115h36q44 1 76 45t34 145h-71l16 99h58q0 46 9 100q30 175 178 175q71 0 106 -43q22 -30 34 -85l-99 -49q-9 59 -43 59 q-24 0 -36 -24q-15 -32 -18 -133h86z" unicode="£"/>
<glyph glyph-name="currency" d="M239 274q25 0 43 17t17 42q1 25 -17 43t-43 17q-24 1 -42 -17t-18 -43q-1 -25 17 -42t43 -17zM314 471l58 58l63 -63l-58 -58q19 -36 19 -74q0 -37 -18 -73l58 -59l-66 -65l-58 58q-36 -18 -74 -18q-36 0 -74 19l-58 -58l-63 63l58 58q-19 38 -19 75q0 34 18 72l-58 59 l65 65l59 -58q40 18 73 18q37 0 75 -19z" unicode="¤"/>
<glyph glyph-name="yen" d="M455 405l-10 -61h-110l-30 -57h130l-10 -61h-133l-38 -226h-138l37 226h-133l10 61h133l-14 57h-109l10 61h85l-62 262h136l51 -241l118 241h126l-137 -262h88z" unicode="¥"/>
<glyph glyph-name="brokenbar" horiz-adv-x="500" unicode="¦" d="M200 -175v350h128v-350h-128zM200 325v350h128v-350h-128z"/>
<glyph glyph-name="section" d="M202 352q-41 -31 -41 -63q0 -42 55 -72l31 -16l12 -7q34 31 34 66q0 36 -46 64l-33 20zM436 556l-97 -33q-7 34 -19 47t-39 13q-25 0 -41 -14t-16 -38q0 -23 17 -42q13 -15 52 -40q11 -7 53 -37q53 -41 53 -113q0 -54 -28 -98q-14 -21 -49 -51q30 -29 41 -56t11 -69 q0 -91 -56 -147t-144 -56q-85 0 -131 57q-24 31 -34 92l105 29q12 -82 76 -82q30 0 48 18t17 51q0 29 -19 53q-14 16 -70 45q-41 21 -57 34q-53 39 -53 111q0 66 38 120q17 20 50 47q-39 46 -39 106q1 77 51 127t129 49q75 0 115 -43q23 -25 36 -80z" unicode="§"/>
<glyph glyph-name="dieresis" d="M362 560q-22 0 -38 15t-15 38q-1 23 15 38t39 15t37 -14t14 -37q0 -25 -14 -40t-38 -15zM221 560q-23 0 -39 15t-15 38q-1 23 15 38t40 15q22 0 36 -14t14 -37q0 -25 -14 -40t-37 -15z" unicode="¨"/>
<glyph glyph-name="copyright" horiz-adv-x="736" unicode="©" d="M577 388l-79 -6q3 26 3 43q0 46 -38 46q-27 0 -43 -30t-28 -111q-8 -47 -8 -81q0 -27 8 -37t26 -11q25 0 38 17t26 64l75 -6q-37 -146 -154 -146q-111 0 -111 139q0 13 2 35t12 66t28 81q18 35 54 63t86 28q62 0 86 -36q19 -28 19 -83q0 -16 -2 -35zM730 381 q0 105 -69 173t-176 68q-120 0 -219 -84t-118 -205q-4 -25 -4 -54q3 -101 72 -168t173 -67q127 0 234 100t107 237zM789 387q0 -85 -37 -161t-96 -128q-60 -52 -132 -82t-144 -30q-122 0 -208 81t-87 214q0 96 54 188q54 91 150 151t205 60q129 0 212 -84t83 -209z"/>
<glyph glyph-name="ordfeminine" horiz-adv-x="425" unicode="ª" d="M209 433q0 -25 20 -25q13 0 21 15t15 53l4 23q-60 -11 -60 -66zM230 560l-94 13q27 106 133 106q49 -1 79 -25t29 -65q0 -15 -3 -32l-4 -23l-19 -112q-6 -40 -6 -48q0 -7 3 -28h-88q-2 9 -2 18v11q-21 -21 -35 -27t-35 -6q-38 0 -60 22t-23 59q0 43 35 80q37 37 129 45 l8 1q4 18 4 35q0 28 -20 28q-21 0 -26 -29z"/>
<glyph glyph-name="guillemotleft" horiz-adv-x="340" unicode="«" d="M148 108h-64l-55 146l92 151h69l-62 -151zM284 108h-64l-55 146l94 151h68l-63 -151z"/>
<glyph glyph-name="logicalnot" d="M316 199v163h-253v105h363v-268h-110z" unicode="¬"/>
<glyph glyph-name="uni00AD" horiz-adv-x="255" unicode="­" d="M46 328h190l-19 -108h-189z"/>
<glyph glyph-name="registered" horiz-adv-x="736" unicode="®" d="M333 623q-63 0 -118 -51t-55 -121q0 -57 35 -91t89 -35q64 1 118 51t54 123q0 53 -34 89t-89 35zM511 514q0 -108 -75 -174t-161 -66q-73 0 -121 47t-48 118q0 103 76 169t159 66q72 0 121 -48t49 -112zM306 546l-9 -54h8q37 0 37 35q0 9 -5 13t-11 5t-20 1zM223 367 l36 219h66q14 0 23 -2t23 -6q14 -5 20 -20q4 -9 4 -21q0 -8 -2 -17q-8 -43 -40 -59l22 -94h-57l-14 83h-14l-13 -83h-54z"/>
<glyph glyph-name="macron" d="M178 646h236l-11 -65h-236z" unicode="¯"/>
<glyph glyph-name="degree" d="M198 528q0 -30 18 -52t47 -23q29 1 47 23t18 52t-18 52t-46 22q-30 0 -48 -23t-18 -51zM115 528q1 63 45 106t102 43q62 0 106 -44t43 -105q-1 -62 -45 -106t-103 -44t-103 43t-45 107z" unicode="°"/>
<glyph glyph-name="plusminus" d="M299 386h126v-105h-126v-129h-110v129h-127v105h127v129h110v-129zM425 0h-363v105h363v-105z" unicode="±"/>
<glyph glyph-name="twosuperior" horiz-adv-x="306" unicode="²" d="M299 351l-15 -84h-244l15 85q75 50 134 117q41 45 41 91q0 34 -23 34q-13 0 -23 -13q-10 -17 -19 -62l-89 20q8 51 27 80q34 55 108 55q56 0 87 -30t31 -83q0 -60 -45 -111q-50 -55 -114 -99h129z"/>
<glyph glyph-name="threesuperior" horiz-adv-x="306" unicode="³" d="M157 549l-79 26q19 53 50 75t83 23q53 1 81 -25t29 -75q0 -75 -63 -100q47 -29 47 -83q0 -59 -37 -95t-98 -36q-65 0 -98 38q-14 16 -20 32t-11 51l83 18q9 -61 44 -61q18 0 28 14t11 38q0 49 -55 49h-17l12 72q13 -1 24 -1q29 0 41 14t13 46q0 33 -25 33q-14 0 -24 -12 t-19 -41z"/>
<glyph glyph-name="acute" d="M378 709l39 -69l-166 -89l-32 47z" unicode="´"/>
<glyph glyph-name="mu" horiz-adv-x="392" unicode="µ" d="M390 492l-83 -493h-118l9 56q-14 -20 -22 -30q-8 -11 -24 -23q-18 -12 -37 -14l-27 -155h-123l110 659h124l-53 -317q-9 -58 -9 -66q0 -22 22 -22q18 0 30 21q13 21 24 87l50 297h127z"/>
<glyph glyph-name="paragraph" horiz-adv-x="450" unicode="¶" d="M410 667v-834h-70v755h-49v-755h-70v425q-28 0 -50 3t-50 15t-47 34t-32 62t-13 94q0 123 74 174q39 27 141 27h166z"/>
<glyph glyph-name="periodcentered" horiz-adv-x="221" unicode="·" d="M46 259l25 149h132l-25 -149h-132z"/>
<glyph glyph-name="cedilla" d="M241 0l-21 -48q41 -2 59 -18t18 -50q1 -40 -29 -66t-75 -26q-49 0 -89 34l21 44q33 -25 58 -25q17 -1 27 9t9 27q0 34 -37 34q-12 0 -31 -3l45 88h45z" unicode="¸"/>
<glyph glyph-name="onesuperior" horiz-adv-x="306" unicode="¹" d="M300 344l-13 -77h-228l13 77h65l34 199q-35 -11 -63 -11h-8t-8 1l14 82q44 1 72 15q18 9 35 39h74l-54 -325h67z"/>
<glyph glyph-name="ordmasculine" horiz-adv-x="425" unicode="º" d="M210 434q0 -24 14 -24q10 0 16 14t14 54q13 69 13 105q0 23 -14 23q-11 0 -17 -12t-12 -47q-14 -67 -14 -113zM109 477q-1 94 39 148t108 54h8q50 -2 77 -37t27 -96q0 -96 -40 -152t-106 -57q-113 0 -113 140z"/>
<glyph glyph-name="guillemotright" horiz-adv-x="340" unicode="»" d="M195 405h64l55 -147l-93 -150h-68l62 150zM58 405h64l56 -147l-93 -150h-68l61 150z"/>
<glyph glyph-name="onequarter" horiz-adv-x="800" unicode="¼" d="M300 344l-13 -77h-228l13 77h65l34 199q-35 -11 -63 -11h-8t-8 1l14 82q44 1 72 15q18 9 35 39h74l-54 -325h67zM583 0l18 87h-146l14 71l187 244h100l-48 -245h44l-12 -70h-44l-18 -87h-95zM584 667h69l-404 -667h-69zM614 154l32 148l-112 -148h80z"/>
<glyph glyph-name="onehalf" horiz-adv-x="825" unicode="½" d="M756 91l-15 -84h-244l15 85q75 50 134 117q41 45 41 91q0 34 -23 34q-13 0 -23 -13q-10 -17 -19 -62l-89 20q8 51 27 80q34 55 108 55q56 0 87 -30t31 -83q0 -60 -45 -111q-50 -55 -114 -99h129zM653 667l-404 -667h-69l404 667h69zM300 344l-13 -77h-228l13 77h65 l34 199q-35 -11 -63 -11h-8t-8 1l14 82q44 1 72 15q18 9 35 39h74l-54 -325h67z"/>
<glyph glyph-name="threequarters" horiz-adv-x="800" unicode="¾" d="M157 549l-79 26q19 53 50 75t83 23q53 1 81 -25t29 -75q0 -75 -63 -100q47 -29 47 -83q0 -59 -37 -95t-98 -36q-65 0 -98 38q-14 16 -20 32t-11 51l83 18q9 -61 44 -61q18 0 28 14t11 38q0 49 -55 49h-17l12 72q13 -1 24 -1q29 0 41 14t13 46q0 33 -25 33q-14 0 -24 -12 t-19 -41zM583 0l18 87h-146l14 71l187 244h100l-48 -245h44l-12 -70h-44l-18 -87h-95zM653 667l-404 -667h-69l404 667h69zM614 154l32 148l-112 -148h80z"/>
<glyph glyph-name="questiondown" horiz-adv-x="425" unicode="¿" d="M302 343h-126l25 150h127zM254 20l97 -36q-14 -47 -23 -67t-27 -43q-48 -60 -143 -60q-75 0 -119 44t-44 119q0 70 34 117q26 36 80 75q38 27 50 49t18 73h115q-4 -49 -12 -82t-26 -57t-30 -35q-11 -10 -40 -34q-33 -26 -45 -49t-12 -58q0 -60 48 -60q27 0 45 24t34 80z "/>
<glyph glyph-name="Agrave" d="M237 883l135 -117l-35 -48l-150 95zM187 260h80l-4 172v22v30v22l-5 -23l-8 -24l-6 -21zM366 667l46 -667h-136l-5 146h-123l-52 -146h-132l262 667h140z" unicode="À"/>
<glyph glyph-name="Aacute" d="M418 879l39 -69l-166 -89l-32 47zM187 260h80l-4 172v22v30v22l-5 -23l-8 -24l-6 -21zM366 667l46 -667h-136l-5 146h-123l-52 -146h-132l262 667h140z" unicode="Á"/>
<glyph glyph-name="Acircumflex" d="M181 727l150 133l110 -133h-79l-46 42l-52 -42h-83zM187 260h80l-4 172v22v30v22l-5 -23l-8 -24l-6 -21zM366 667l46 -667h-136l-5 146h-123l-52 -146h-132l262 667h140z" unicode="Â"/>
<glyph glyph-name="Atilde" d="M404 843l31 -40q-47 -69 -98 -69q-20 0 -45 15t-43 15q-24 0 -50 -25l-31 43q44 55 90 55q19 0 52 -16q29 -14 43 -14q24 0 51 36zM187 260h80l-4 172v22v30v22l-5 -23l-8 -24l-6 -21zM366 667l46 -667h-136l-5 146h-123l-52 -146h-132l262 667h140z" unicode="Ã"/>
<glyph glyph-name="Adieresis" d="M392 730q-22 0 -38 15t-15 38q-1 23 15 38t39 15t37 -14t14 -37q0 -25 -14 -40t-38 -15zM251 730q-23 0 -39 15t-15 38q-1 23 15 38t40 15q22 0 36 -14t14 -37q0 -25 -14 -40t-37 -15zM187 260h80l-4 172v22v30v22l-5 -23l-8 -24l-6 -21zM366 667l46 -667h-136l-5 146 h-123l-52 -146h-132l262 667h140z" unicode="Ä"/>
<glyph glyph-name="Aring" d="M314 769q16 1 26 11t11 26q-1 15 -11 26t-26 11t-26 -11t-10 -26q0 -16 10 -26t26 -11zM314 711h-3q-37 0 -64 27q-28 28 -28 67q-1 40 27 68t68 28t68 -28t28 -67q0 -40 -28 -68t-68 -27zM187 260h80l-4 172v22v30v22l-5 -23l-8 -24l-6 -21zM366 667l46 -667h-136 l-5 146h-123l-52 -146h-132l262 667h140z" unicode="Å"/>
<glyph glyph-name="AE" horiz-adv-x="646" unicode="Æ" d="M289 282l49 292l-131 -292h82zM584 117l-20 -117h-322l28 169h-109l-77 -169h-128l317 667h403l-19 -114h-189l-27 -156h153l-19 -110h-152l-29 -170h190z"/>
<glyph glyph-name="Ccedilla" d="M307 232l124 -24q-23 -106 -71 -160t-124 -59l-16 -37q41 -2 59 -18t18 -50q1 -40 -29 -66t-75 -26q-49 0 -89 34l21 44q33 -25 58 -25q17 -1 27 9t9 27q0 34 -37 34q-12 0 -31 -3l40 78q-75 7 -115 67t-40 165q0 88 20 180t53 157q62 120 183 120q82 0 126 -52t44 -152 q0 -21 -2 -48l-127 -8q2 28 2 54q-1 47 -11 67t-35 21q-39 0 -60 -68q-19 -65 -33 -152t-14 -150q0 -85 49 -85q27 0 45 30t31 96z" unicode="Ç"/>
<glyph glyph-name="Egrave" horiz-adv-x="425" unicode="È" d="M217 883l135 -117l-35 -48l-150 95zM122 667h345l-18 -114h-213l-25 -156h174l-20 -110h-173l-28 -170h219l-21 -117h-351z"/>
<glyph glyph-name="Eacute" horiz-adv-x="425" unicode="É" d="M378 879l39 -69l-166 -89l-32 47zM122 667h345l-18 -114h-213l-25 -156h174l-20 -110h-173l-28 -170h219l-21 -117h-351z"/>
<glyph glyph-name="Ecircumflex" horiz-adv-x="425" unicode="Ê" d="M171 727l150 133l110 -133h-79l-46 42l-52 -42h-83zM122 667h345l-18 -114h-213l-25 -156h174l-20 -110h-173l-28 -170h219l-21 -117h-351z"/>
<glyph glyph-name="Edieresis" horiz-adv-x="425" unicode="Ë" d="M372 730q-22 0 -38 15t-15 38q-1 23 15 38t39 15t37 -14t14 -37q0 -25 -14 -40t-38 -15zM231 730q-23 0 -39 15t-15 38q-1 23 15 38t40 15q22 0 36 -14t14 -37q0 -25 -14 -40t-37 -15zM122 667h345l-18 -114h-213l-25 -156h174l-20 -110h-173l-28 -170h219l-21 -117h-351 z"/>
<glyph glyph-name="Igrave" horiz-adv-x="238" unicode="Ì" d="M127 883l135 -117l-35 -48l-150 95zM122 667h134l-112 -667h-133z"/>
<glyph glyph-name="Iacute" horiz-adv-x="238" unicode="Í" d="M288 879l39 -69l-166 -89l-32 47zM122 667h134l-112 -667h-133z"/>
<glyph glyph-name="Icircumflex" horiz-adv-x="238" unicode="Î" d="M76 727l150 133l110 -133h-79l-46 42l-52 -42h-83zM122 667h134l-112 -667h-133z"/>
<glyph glyph-name="Idieresis" horiz-adv-x="238" unicode="Ï" d="M272 730q-22 0 -38 15t-15 38q-1 23 15 38t39 15t37 -14t14 -37q0 -25 -14 -40t-38 -15zM131 730q-23 0 -39 15t-15 38q-1 23 15 38t40 15q22 0 36 -14t14 -37q0 -25 -14 -40t-37 -15zM122 667h134l-112 -667h-133z"/>
<glyph glyph-name="Eth" horiz-adv-x="476" unicode="Ð" d="M162 110h28q71 0 103 90q39 110 39 235q0 65 -17 94t-56 29h-22l-29 -172h71l-16 -92h-70zM122 667h129q63 0 100 -12q34 -11 57 -37q59 -59 59 -199q0 -210 -89 -331q-36 -48 -84 -68t-125 -20h-158l49 294h-53l16 92h52z"/>
<glyph glyph-name="Ntilde" horiz-adv-x="494" unicode="Ñ" d="M409 843l31 -40q-46 -69 -98 -69q-20 0 -45 15t-43 15q-24 0 -50 -25l-31 43q44 55 90 55q19 0 52 -16q29 -14 43 -14q24 0 51 36zM11 0l111 667h135l68 -282q7 -33 16 -101q1 16 7 66t10 77l39 240h114l-112 -667h-106l-83 350q-9 41 -18 106q-1 -8 -6 -66t-9 -81 l-53 -309h-113z"/>
<glyph glyph-name="Ograve" horiz-adv-x="476" unicode="Ò" d="M217 883l135 -117l-35 -48l-150 95zM170 173q0 -72 45 -72t70 78q19 59 33 149t13 157q0 45 -10 63t-34 18q-38 0 -63 -67q-22 -63 -38 -159t-16 -167zM35 223q0 166 57 303q30 73 84 113t122 40h6q162 -5 162 -228q0 -200 -74 -342q-63 -122 -186 -122q-84 0 -128 60 t-43 176z"/>
<glyph glyph-name="Oacute" horiz-adv-x="476" unicode="Ó" d="M403 879l39 -69l-166 -89l-32 47zM170 173q0 -72 45 -72t70 78q19 59 33 149t13 157q0 45 -10 63t-34 18q-38 0 -63 -67q-22 -63 -38 -159t-16 -167zM35 223q0 166 57 303q30 73 84 113t122 40h6q162 -5 162 -228q0 -200 -74 -342q-63 -122 -186 -122q-84 0 -128 60 t-43 176z"/>
<glyph glyph-name="Ocircumflex" horiz-adv-x="476" unicode="Ô" d="M176 727l150 133l110 -133h-79l-46 42l-52 -42h-83zM170 173q0 -72 45 -72t70 78q19 59 33 149t13 157q0 45 -10 63t-34 18q-38 0 -63 -67q-22 -63 -38 -159t-16 -167zM35 223q0 166 57 303q30 73 84 113t122 40h6q162 -5 162 -228q0 -200 -74 -342q-63 -122 -186 -122 q-84 0 -128 60t-43 176z"/>
<glyph glyph-name="Otilde" horiz-adv-x="476" unicode="Õ" d="M414 843l31 -40q-47 -69 -98 -69q-20 0 -45 15t-43 15q-24 0 -50 -25l-31 43q44 55 90 55q19 0 52 -16q29 -14 43 -14q24 0 51 36zM170 173q0 -72 45 -72t70 78q19 59 33 149t13 157q0 45 -10 63t-34 18q-38 0 -63 -67q-22 -63 -38 -159t-16 -167zM35 223q0 166 57 303 q30 73 84 113t122 40h6q162 -5 162 -228q0 -200 -74 -342q-63 -122 -186 -122q-84 0 -128 60t-43 176z"/>
<glyph glyph-name="Odieresis" horiz-adv-x="476" unicode="Ö" d="M392 730q-22 0 -38 15t-15 38q-1 23 15 38t39 15t37 -14t14 -37q0 -25 -14 -40t-38 -15zM251 730q-23 0 -39 15t-15 38q-1 23 15 38t40 15q22 0 36 -14t14 -37q0 -25 -14 -40t-37 -15zM170 173q0 -72 45 -72t70 78q19 59 33 149t13 157q0 45 -10 63t-34 18q-38 0 -63 -67 q-22 -63 -38 -159t-16 -167zM35 223q0 166 57 303q30 73 84 113t122 40h6q162 -5 162 -228q0 -200 -74 -342q-63 -122 -186 -122q-84 0 -128 60t-43 176z"/>
<glyph glyph-name="multiply" d="M246 409l97 98l75 -75l-98 -97l100 -99l-79 -78l-99 99l-98 -98l-74 76l97 96l-99 100l78 78z" unicode="×"/>
<glyph glyph-name="Oslash" horiz-adv-x="476" unicode="Ø" d="M214 98q24 0 45 21t34 60q30 88 41 200q2 21 5 70l-161 -326q3 -25 36 -25zM292 569q-39 0 -69 -70q-38 -91 -48 -206q-5 -52 -7 -80l162 326q-6 30 -38 30zM473 705l-45 -87q41 -60 41 -167q0 -200 -74 -342q-63 -122 -186 -122q-47 0 -92 26l-29 -53h-57l48 91 q-41 66 -41 172q0 170 57 303q30 72 84 112t120 41q53 0 91 -23l26 49h57z"/>
<glyph glyph-name="Ugrave" horiz-adv-x="477" unicode="Ù" d="M227 883l135 -117l-35 -48l-150 95zM116 667h132l-64 -385q-10 -60 -10 -61q-4 -34 -4 -52q0 -63 55 -63q37 0 56 34q19 39 36 146l65 381h118l-64 -385q-19 -113 -35 -160q-45 -135 -193 -135q-82 -1 -124 45t-43 133q0 59 11 121z"/>
<glyph glyph-name="Uacute" horiz-adv-x="477" unicode="Ú" d="M428 879l39 -69l-166 -89l-32 47zM116 667h132l-64 -385q-10 -60 -10 -61q-4 -34 -4 -52q0 -63 55 -63q37 0 56 34q19 39 36 146l65 381h118l-64 -385q-19 -113 -35 -160q-45 -135 -193 -135q-82 -1 -124 45t-43 133q0 59 11 121z"/>
<glyph glyph-name="Ucircumflex" horiz-adv-x="477" unicode="Û" d="M191 727l150 133l110 -133h-79l-46 42l-52 -42h-83zM116 667h132l-64 -385q-10 -60 -10 -61q-4 -34 -4 -52q0 -63 55 -63q37 0 56 34q19 39 36 146l65 381h118l-64 -385q-19 -113 -35 -160q-45 -135 -193 -135q-82 -1 -124 45t-43 133q0 59 11 121z"/>
<glyph glyph-name="Udieresis" horiz-adv-x="477" unicode="Ü" d="M402 730q-22 0 -38 15t-15 38q-1 23 15 38t39 15t37 -14t14 -37q0 -25 -14 -40t-38 -15zM261 730q-23 0 -39 15t-15 38q-1 23 15 38t40 15q22 0 36 -14t14 -37q0 -25 -14 -40t-37 -15zM116 667h132l-64 -385q-10 -60 -10 -61q-4 -34 -4 -52q0 -63 55 -63q37 0 56 34 q19 39 36 146l65 381h118l-64 -385q-19 -113 -35 -160q-45 -135 -193 -135q-82 -1 -124 45t-43 133q0 59 11 121z"/>
<glyph glyph-name="Yacute" horiz-adv-x="425" unicode="Ý" d="M403 879l39 -69l-166 -89l-32 47zM65 667h136l51 -241l118 241h126l-203 -388l-47 -279h-138l47 286z"/>
<glyph glyph-name="Thorn" horiz-adv-x="442" unicode="Þ" d="M187 259h43q36 0 53 22q28 35 28 101q-1 38 -15 55t-47 17h-29zM122 667h134l-18 -103h14q74 0 113 -21q37 -19 59 -63t22 -102q0 -103 -58 -166t-154 -63h-66l-24 -149h-133z"/>
<glyph glyph-name="germandbls" horiz-adv-x="494" unicode="ß" d="M34 355l17 99h46q15 97 35 141q23 51 74 82t110 31q68 0 109 -36t41 -97q0 -63 -44 -105q-22 -22 -42 -35t-67 -35q6 -12 22 -22l33 -23q91 -62 91 -163q1 -87 -47 -143t-122 -56q-58 0 -113 31l41 91q31 -19 60 -19q24 0 38 19t15 50q1 23 -9 39t-38 38q-34 26 -46 46 t-12 50q0 36 14 66t47 71q33 11 47 28t14 46q0 57 -49 57q-31 0 -47 -28q-11 -21 -16 -47q-1 -6 -18 -85l-83 -498h-126l68 407h-43z"/>
<glyph glyph-name="agrave" horiz-adv-x="408" unicode="à" d="M191 713l135 -117l-35 -48l-150 95zM143 130q0 -51 38 -51q40 0 60 116l6 43q-35 -6 -57 -19q-21 -13 -34 -39t-13 -50zM177 339l-116 19q35 149 180 149q65 0 105 -36t40 -95q0 -24 -11 -88l-29 -178q-10 -50 -10 -87q0 -1 2 -23h-112q-3 16 -3 26q1 2 1 10v14 q-12 -16 -33 -35q-25 -21 -69 -21q-52 0 -82 31t-30 86q0 30 13 67q22 61 72 91t146 39l18 2q8 38 8 60q0 50 -35 50q-29 0 -42 -30q-8 -18 -13 -51z"/>
<glyph glyph-name="aacute" horiz-adv-x="408" unicode="á" d="M352 709l39 -69l-166 -89l-32 47zM143 130q0 -51 38 -51q40 0 60 116l6 43q-35 -6 -57 -19q-21 -13 -34 -39t-13 -50zM177 339l-116 19q35 149 180 149q65 0 105 -36t40 -95q0 -24 -11 -88l-29 -178q-10 -50 -10 -87q0 -1 2 -23h-112q-3 16 -3 26q1 2 1 10v14 q-12 -16 -33 -35q-25 -21 -69 -21q-52 0 -82 31t-30 86q0 30 13 67q22 61 72 91t146 39l18 2q8 38 8 60q0 50 -35 50q-29 0 -42 -30q-8 -18 -13 -51z"/>
<glyph glyph-name="acircumflex" horiz-adv-x="408" unicode="â" d="M125 557l150 133l110 -133h-79l-46 42l-52 -42h-83zM143 130q0 -51 38 -51q40 0 60 116l6 43q-35 -6 -57 -19q-21 -13 -34 -39t-13 -50zM177 339l-116 19q35 149 180 149q65 0 105 -36t40 -95q0 -24 -11 -88l-29 -178q-10 -50 -10 -87q0 -1 2 -23h-112q-3 16 -3 26 q1 2 1 10v14q-12 -16 -33 -35q-25 -21 -69 -21q-52 0 -82 31t-30 86q0 30 13 67q22 61 72 91t146 39l18 2q8 38 8 60q0 50 -35 50q-29 0 -42 -30q-8 -18 -13 -51z"/>
<glyph glyph-name="atilde" horiz-adv-x="408" unicode="ã" d="M358 673l31 -40q-47 -69 -98 -69q-20 0 -45 15t-43 15q-24 0 -50 -25l-31 43q44 55 90 55q19 0 52 -16q29 -14 43 -14q24 0 51 36zM143 130q0 -51 38 -51q40 0 60 116l6 43q-35 -6 -57 -19q-21 -13 -34 -39t-13 -50zM177 339l-116 19q35 149 180 149q65 0 105 -36t40 -95 q0 -24 -11 -88l-29 -178q-10 -50 -10 -87q0 -1 2 -23h-112q-3 16 -3 26q1 2 1 10v14q-12 -16 -33 -35q-25 -21 -69 -21q-52 0 -82 31t-30 86q0 30 13 67q22 61 72 91t146 39l18 2q8 38 8 60q0 50 -35 50q-29 0 -42 -30q-8 -18 -13 -51z"/>
<glyph glyph-name="adieresis" horiz-adv-x="408" unicode="ä" d="M336 560q-22 0 -38 15t-15 38q-1 23 15 38t39 15t37 -14t14 -37q0 -25 -14 -40t-38 -15zM195 560q-23 0 -39 15t-15 38q-1 23 15 38t40 15q22 0 36 -14t14 -37q0 -25 -14 -40t-37 -15zM143 130q0 -51 38 -51q40 0 60 116l6 43q-35 -6 -57 -19q-21 -13 -34 -39t-13 -50z M177 339l-116 19q35 149 180 149q65 0 105 -36t40 -95q0 -24 -11 -88l-29 -178q-10 -50 -10 -87q0 -1 2 -23h-112q-3 16 -3 26q1 2 1 10v14q-12 -16 -33 -35q-25 -21 -69 -21q-52 0 -82 31t-30 86q0 30 13 67q22 61 72 91t146 39l18 2q8 38 8 60q0 50 -35 50q-29 0 -42 -30 q-8 -18 -13 -51z"/>
<glyph glyph-name="aring" horiz-adv-x="408" unicode="å" d="M268 599q16 1 26 11t11 26q-1 15 -11 26t-26 11t-26 -11t-10 -26q0 -16 10 -26t26 -11zM268 541h-3q-37 0 -64 27q-28 28 -28 67q-1 40 27 68t68 28t68 -28t28 -67q0 -40 -28 -68t-68 -27zM143 130q0 -51 38 -51q40 0 60 116l6 43q-35 -6 -57 -19q-21 -13 -34 -39 t-13 -50zM177 339l-116 19q35 149 180 149q65 0 105 -36t40 -95q0 -24 -11 -88l-29 -178q-10 -50 -10 -87q0 -1 2 -23h-112q-3 16 -3 26q1 2 1 10v14q-12 -16 -33 -35q-25 -21 -69 -21q-52 0 -82 31t-30 86q0 30 13 67q22 61 72 91t146 39l18 2q8 38 8 60q0 50 -35 50 q-29 0 -42 -30q-8 -18 -13 -51z"/>
<glyph glyph-name="ae" horiz-adv-x="613" unicode="æ" d="M472 370q0 50 -31 50q-43 0 -62 -118h87q6 39 6 68zM143 130q0 -50 37 -50q23 0 35 25q18 38 26 90l7 43q-36 -6 -58 -19q-20 -13 -34 -39t-13 -50zM578 224h-211q-3 -34 -3 -73t8 -54t25 -15q39 0 59 86l104 -20q-12 -49 -29 -79q-47 -83 -143 -83q-86 0 -109 94 q-54 -87 -151 -87q-58 0 -88 31t-30 87q0 31 13 67q12 35 37 60q30 33 70 48t111 22l18 2q8 35 8 60q0 50 -35 50q-29 0 -42 -30q-7 -17 -13 -51l-116 19q17 72 63 110t112 39q22 0 47 -7q32 -10 63 -46q43 53 104 53q66 -1 100 -47t34 -134q0 -43 -6 -102z"/>
<glyph glyph-name="ccedilla" horiz-adv-x="374" unicode="ç" d="M243 190l108 -20q-34 -178 -176 -183l-15 -35q41 -2 59 -18t18 -50q1 -40 -29 -66t-75 -26q-49 0 -89 34l21 44q33 -25 58 -25q17 -1 27 9t9 27q0 34 -37 34q-12 0 -31 -3l40 78q-45 7 -74 39q-41 45 -41 147q0 151 58 241t154 90q66 0 105 -42t39 -114q0 -9 -3 -36 l-111 -8q2 32 2 33q0 71 -36 71q-34 0 -50 -65q-18 -75 -26 -152q-5 -60 -5 -65q0 -47 34 -47q45 0 66 108z"/>
<glyph glyph-name="egrave" horiz-adv-x="391" unicode="è" d="M132 713l135 -117l-35 -48l-150 95zM243 302q4 39 4 68q0 50 -30 50q-43 0 -62 -118h88zM360 224h-214l-1 -11q-2 -37 -2 -57q0 -42 8 -58t28 -16q22 0 34 18t25 68l105 -20q-14 -52 -28 -79q-45 -83 -148 -83q-151 0 -151 198q0 146 58 234t151 89q141 0 141 -183 q0 -39 -6 -100z"/>
<glyph glyph-name="eacute" horiz-adv-x="391" unicode="é" d="M344 709l39 -69l-166 -89l-32 47zM243 302q4 39 4 68q0 50 -30 50q-43 0 -62 -118h88zM360 224h-214l-1 -11q-2 -37 -2 -57q0 -42 8 -58t28 -16q22 0 34 18t25 68l105 -20q-14 -52 -28 -79q-45 -83 -148 -83q-151 0 -151 198q0 146 58 234t151 89q141 0 141 -183 q0 -39 -6 -100z"/>
<glyph glyph-name="ecircumflex" horiz-adv-x="391" unicode="ê" d="M81 557l150 133l110 -133h-79l-46 42l-52 -42h-83zM243 302q4 39 4 68q0 50 -30 50q-43 0 -62 -118h88zM360 224h-214l-1 -11q-2 -37 -2 -57q0 -42 8 -58t28 -16q22 0 34 18t25 68l105 -20q-14 -52 -28 -79q-45 -83 -148 -83q-151 0 -151 198q0 146 58 234t151 89 q141 0 141 -183q0 -39 -6 -100z"/>
<glyph glyph-name="edieresis" horiz-adv-x="391" unicode="ë" d="M328 560q-22 0 -38 15t-15 38q-1 23 15 38t39 15t37 -14t14 -37q0 -25 -14 -40t-38 -15zM187 560q-23 0 -39 15t-15 38q-1 23 15 38t40 15q22 0 36 -14t14 -37q0 -25 -14 -40t-37 -15zM243 302q4 39 4 68q0 50 -30 50q-43 0 -62 -118h88zM360 224h-214l-1 -11 q-2 -37 -2 -57q0 -42 8 -58t28 -16q22 0 34 18t25 68l105 -20q-14 -52 -28 -79q-45 -83 -148 -83q-151 0 -151 198q0 146 58 234t151 89q141 0 141 -183q0 -39 -6 -100z"/>
<glyph glyph-name="igrave" horiz-adv-x="204" unicode="ì" d="M69 713l135 -117l-35 -48l-150 95zM77 493h131l-83 -493h-130z"/>
<glyph glyph-name="iacute" horiz-adv-x="204" unicode="í" d="M250 709l39 -69l-166 -89l-32 47zM77 493h131l-83 -493h-130z"/>
<glyph glyph-name="icircumflex" horiz-adv-x="204" unicode="î" d="M23 557l150 133l110 -133h-79l-46 42l-52 -42h-83zM77 493h131l-83 -493h-130z"/>
<glyph glyph-name="idieresis" horiz-adv-x="204" unicode="ï" d="M234 560q-22 0 -38 15t-15 38q-1 23 15 38t39 15t37 -14t14 -37q0 -25 -14 -40t-38 -15zM93 560q-23 0 -39 15t-15 38q-1 23 15 38t40 15q22 0 36 -14t14 -37q0 -25 -14 -40t-37 -15zM77 493h131l-83 -493h-130z"/>
<glyph glyph-name="eth" horiz-adv-x="391" unicode="ð" d="M427 641l-113 -43q60 -163 60 -286q0 -117 -39 -207q-23 -55 -67 -87t-99 -32q-152 0 -152 204q0 145 56 231t147 86q13 0 23 -2q-4 23 -16 60l-101 -38l-27 71l102 39l-8 20t-9 22l84 33q10 -22 18 -43l114 43zM247 364q0 47 -27 47q-20 1 -31 -21t-22 -82 q-15 -69 -20 -140q-3 -34 -3 -45q0 -41 27 -41q20 0 31 24t24 92q21 105 21 166z"/>
<glyph glyph-name="ntilde" horiz-adv-x="391" unicode="ñ" d="M339 673l31 -40q-46 -69 -98 -69q-20 0 -45 15t-43 15q-24 0 -50 -25l-31 43q44 55 90 55q19 0 52 -16q29 -14 43 -14q24 0 51 36zM-5 0l83 493h120l-10 -59q25 40 48 56t54 17q42 0 64 -25t22 -70q0 -30 -13 -108l-50 -304h-124l50 304q8 52 8 72q0 28 -21 28 q-18 0 -30 -22t-22 -78l-52 -304h-127z"/>
<glyph glyph-name="ograve" horiz-adv-x="391" unicode="ò" d="M142 713l135 -117l-35 -48l-150 95zM247 364q0 47 -27 47q-20 1 -31 -21t-22 -82q-23 -131 -23 -185q0 -41 27 -41q20 0 31 24t24 92q21 105 21 166zM17 190q0 146 56 232t151 85h11q59 0 99 -51t40 -144q0 -117 -39 -207q-23 -55 -67 -87t-99 -32q-152 0 -152 204z"/>
<glyph glyph-name="oacute" horiz-adv-x="391" unicode="ó" d="M344 709l39 -69l-166 -89l-32 47zM247 364q0 47 -27 47q-20 1 -31 -21t-22 -82q-23 -131 -23 -185q0 -41 27 -41q20 0 31 24t24 92q21 105 21 166zM17 190q0 146 56 232t151 85h11q59 0 99 -51t40 -144q0 -117 -39 -207q-23 -55 -67 -87t-99 -32q-152 0 -152 204z"/>
<glyph glyph-name="ocircumflex" horiz-adv-x="391" unicode="ô" d="M96 557l150 133l110 -133h-79l-46 42l-52 -42h-83zM247 364q0 47 -27 47q-20 1 -31 -21t-22 -82q-23 -131 -23 -185q0 -41 27 -41q20 0 31 24t24 92q21 105 21 166zM17 190q0 146 56 232t151 85h11q59 0 99 -51t40 -144q0 -117 -39 -207q-23 -55 -67 -87t-99 -32 q-152 0 -152 204z"/>
<glyph glyph-name="otilde" horiz-adv-x="391" unicode="õ" d="M339 673l31 -40q-46 -69 -98 -69q-20 0 -45 15t-43 15q-24 0 -50 -25l-31 43q44 55 90 55q19 0 52 -16q29 -14 43 -14q24 0 51 36zM247 364q0 47 -27 47q-20 1 -31 -21t-22 -82q-23 -131 -23 -185q0 -41 27 -41q20 0 31 24t24 92q21 105 21 166zM17 190q0 146 56 232 t151 85h11q59 0 99 -51t40 -144q0 -117 -39 -207q-23 -55 -67 -87t-99 -32q-152 0 -152 204z"/>
<glyph glyph-name="odieresis" horiz-adv-x="391" unicode="ö" d="M328 560q-22 0 -38 15t-15 38q-1 23 15 38t39 15t37 -14t14 -37q0 -25 -14 -40t-38 -15zM187 560q-23 0 -39 15t-15 38q-1 23 15 38t40 15q22 0 36 -14t14 -37q0 -25 -14 -40t-37 -15zM247 364q0 47 -27 47q-20 1 -31 -21t-22 -82q-23 -131 -23 -185q0 -41 27 -41 q20 0 31 24t24 92q21 105 21 166zM17 190q0 146 56 232t151 85h11q59 0 99 -51t40 -144q0 -117 -39 -207q-23 -55 -67 -87t-99 -32q-152 0 -152 204z"/>
<glyph glyph-name="divide" d="M303 103h-118v132h118v-132zM303 432h-118v132h118v-132zM425 281h-363v105h363v-105z" unicode="÷"/>
<glyph glyph-name="oslash" horiz-adv-x="391" unicode="ø" d="M168 78q32 0 51 54q29 83 29 173l-103 -208q3 -19 23 -19zM222 414q-31 0 -50 -55q-30 -93 -30 -190l106 214q0 31 -26 31zM302 487l31 58h52l-49 -91q38 -55 38 -143q0 -116 -39 -206q-23 -55 -67 -87t-98 -32q-40 0 -75 18l-32 -61h-52l49 91q-43 55 -43 157 q-1 145 55 231t151 85q40 0 79 -20z"/>
<glyph glyph-name="ugrave" horiz-adv-x="392" unicode="ù" d="M143 713l135 -117l-35 -48l-150 95zM390 494l-83 -494h-118l9 56q-24 -36 -44 -51q-25 -19 -57 -19q-39 0 -61 26t-23 73q0 38 9 92l53 317h124l-53 -317q-9 -58 -9 -66q0 -22 22 -22q18 0 30 21q13 21 24 87l50 297h127z"/>
<glyph glyph-name="uacute" horiz-adv-x="392" unicode="ú" d="M344 709l39 -69l-166 -89l-32 47zM390 494l-83 -494h-118l9 56q-24 -36 -44 -51q-25 -19 -57 -19q-39 0 -61 26t-23 73q0 38 9 92l53 317h124l-53 -317q-9 -58 -9 -66q0 -22 22 -22q18 0 30 21q13 21 24 87l50 297h127z"/>
<glyph glyph-name="ucircumflex" horiz-adv-x="392" unicode="û" d="M107 557l150 133l110 -133h-79l-46 42l-52 -42h-83zM390 494l-83 -494h-118l9 56q-24 -36 -44 -51q-25 -19 -57 -19q-39 0 -61 26t-23 73q0 38 9 92l53 317h124l-53 -317q-9 -58 -9 -66q0 -22 22 -22q18 0 30 21q13 21 24 87l50 297h127z"/>
<glyph glyph-name="udieresis" horiz-adv-x="392" unicode="ü" d="M328 560q-22 0 -38 15t-15 38q-1 23 15 38t39 15t37 -14t14 -37q0 -25 -14 -40t-38 -15zM187 560q-23 0 -39 15t-15 38q-1 23 15 38t40 15q22 0 36 -14t14 -37q0 -25 -14 -40t-37 -15zM390 494l-83 -494h-118l9 56q-24 -36 -44 -51q-25 -19 -57 -19q-39 0 -61 26t-23 73 q0 38 9 92l53 317h124l-53 -317q-9 -58 -9 -66q0 -22 22 -22q18 0 30 21q13 21 24 87l50 297h127z"/>
<glyph glyph-name="yacute" horiz-adv-x="389" unicode="ý" d="M343 709l39 -69l-166 -89l-32 47zM398 493l-197 -497q-28 -70 -45 -98t-44 -48q-33 -25 -90 -25q-19 0 -33 3l13 112q20 -2 22 -2q36 0 54 18t33 69l-57 468h130l11 -179q1 -12 1 -31t2 -45v-38q13 64 29 114l61 179h110z"/>
<glyph glyph-name="thorn" horiz-adv-x="391" unicode="þ" d="M148 160q-4 -21 -4 -29q0 -19 8 -31t23 -12q28 0 49 83q21 92 21 164q0 39 -6 55t-22 15q-15 0 -23 -13t-14 -44zM107 667h127l-36 -213q34 46 74 46q49 0 77 -44t28 -125q0 -146 -52 -255q-20 -39 -51 -61t-67 -22q-51 0 -78 49l-35 -209h-126z"/>
<glyph glyph-name="ydieresis" horiz-adv-x="389" unicode="ÿ" d="M327 560q-23 0 -38 15t-15 38t16 38t38 15q23 0 37 -14t14 -37q-1 -25 -15 -40t-37 -15zM186 560q-22 0 -38 15t-16 38t16 38t39 15q22 0 36 -14t14 -37q0 -25 -14 -40t-37 -15zM398 493l-197 -497q-28 -70 -45 -98t-44 -48q-33 -25 -90 -25q-19 0 -33 3l13 112 q20 -2 22 -2q36 0 54 18t33 69l-57 468h130l11 -179q1 -12 1 -31t2 -45v-38q13 64 29 114l61 179h110z"/>
<glyph glyph-name="dotlessi" horiz-adv-x="204" unicode="ı" d="M77 493h131l-83 -493h-130z"/>
<glyph glyph-name="Lslash" horiz-adv-x="374" unicode="Ł" d="M122 667h133l-40 -239l101 84l-18 -104l-100 -85l-35 -206h172l-19 -117h-305l38 226l-58 -48l17 104l58 49z"/>
<glyph glyph-name="lslash" horiz-adv-x="238" unicode="ł" d="M123 667h131l-36 -218l71 57l-15 -86l-71 -59l-60 -361h-131l44 264l-72 -59l17 97l71 56z"/>
<glyph glyph-name="OE" horiz-adv-x="680" unicode="Œ" d="M292 117l71 428q-23 21 -59 21q-53 0 -77 -67q-22 -63 -38 -159t-16 -167q-1 -39 11 -55t38 -17q36 0 70 16zM618 0h-346q-22 -8 -34 -10q-16 -3 -35 -3q-79 -1 -122 61t-43 175q0 170 57 303q63 153 209 153q36 0 80 -12h339l-19 -114h-213l-25 -156h173l-18 -110h-173 l-29 -170h219z"/>
<glyph glyph-name="oe" horiz-adv-x="613" unicode="œ" d="M466 302q2 24 2 58q0 60 -32 60q-45 0 -64 -118h94zM220 411q-20 1 -31 -21t-22 -82q-15 -69 -20 -140q-3 -34 -3 -45q0 -41 27 -41q20 0 31 24t24 92q21 105 21 166q0 47 -27 47zM577 224h-214l-1 -11q-2 -44 -2 -58q0 -41 8 -57t29 -16q23 0 37 18t27 68l99 -20 q-14 -52 -29 -79q-45 -83 -145 -83q-68 0 -112 59q-44 -59 -114 -59q-68 0 -106 54t-37 150q0 144 56 230t148 87q68 0 103 -63q50 63 120 63q68 -1 104 -47t35 -135q0 -39 -6 -101z"/>
<glyph glyph-name="Scaron" horiz-adv-x="443" unicode="Š" d="M422 854l-150 -135l-110 135h79l46 -44l54 44h81zM440 515l-114 -39q-17 85 -69 85q-25 -1 -41 -19t-16 -46q0 -18 10 -36q15 -25 77 -66q60 -40 88 -70q42 -46 42 -115q-1 -98 -59 -160t-149 -62q-86 0 -136 52t-59 150l118 23q3 -45 19 -71q22 -35 64 -35q31 0 49 20 t18 57q0 27 -14 45t-53 44q-55 37 -73 51t-34 32q-39 44 -39 109q1 92 55 154t135 61q69 -1 117 -43t64 -121z"/>
<glyph glyph-name="scaron" horiz-adv-x="357" unicode="š" d="M360 684l-150 -135l-110 135h79l46 -44l54 44h81zM351 381l-93 -34q-8 35 -21 51t-36 16q-17 0 -29 -14t-13 -32q0 -15 7 -26q7 -14 49 -37q46 -26 71 -48q43 -40 43 -104q1 -75 -45 -121t-122 -46q-73 0 -115 33t-56 102l104 29q19 -71 65 -71q22 -1 36 15t13 39 q0 17 -11 30t-40 30l-37 22q-81 48 -81 131q0 71 47 116t121 45q122 0 143 -126z"/>
<glyph glyph-name="Ydieresis" horiz-adv-x="425" unicode="Ÿ" d="M377 730q-23 0 -38 15t-15 38t16 38t38 15q23 0 37 -14t14 -37q-1 -25 -15 -40t-37 -15zM236 730q-22 0 -38 15t-16 38t16 38t39 15q22 0 36 -14t14 -37q0 -25 -14 -40t-37 -15zM65 667h136l51 -241l118 241h126l-203 -388l-47 -279h-138l47 286z"/>
<glyph glyph-name="Zcaron" horiz-adv-x="425" unicode="Ž" d="M442 854l-150 -135l-110 135h79l46 -44l54 44h81zM101 667h366l-17 -104l-294 -446h229l-20 -117h-385l17 106l296 447h-210z"/>
<glyph glyph-name="zcaron" horiz-adv-x="340" unicode="ž" d="M372 684l-150 -135l-110 135h79l46 -44l54 44h81zM350 493l-17 -99l-194 -296h149l-16 -98h-290l17 96l196 298h-138l17 99h276z"/>
<glyph glyph-name="florin" d="M410 479l-27 -107h-70l-72 -278q-21 -86 -38 -126t-41 -69q-38 -44 -109 -44q-23 0 -57 7l28 105q12 -3 17 -3q29 0 46 28t38 110l69 270h-49l28 107h50l7 24q20 59 34 87t36 52q41 41 113 41q27 0 56 -10l-27 -96q-15 4 -22 4q-26 0 -43 -19t-31 -64l-6 -19h70z" unicode="ƒ"/>
<glyph glyph-name="circumflex" d="M151 557l150 133l110 -133h-79l-46 42l-52 -42h-83z" unicode="ˆ"/>
<glyph glyph-name="caron" d="M432 684l-150 -135l-110 135h79l46 -44l54 44h81z" unicode="ˇ"/>
<glyph glyph-name="uni02C9" d="M178 646h236l-11 -65h-236z" unicode="ˉ"/>
<glyph glyph-name="breve" d="M167 661h64q11 -35 63 -35q25 0 40 8t29 27h65q-39 -104 -138 -104q-67 0 -101 49q-12 16 -22 55z" unicode="˘"/>
<glyph glyph-name="dotaccent" d="M292 557q-26 0 -42 16t-16 40q0 25 17 41t42 16t40 -16t15 -40q0 -25 -16 -41t-40 -16z" unicode="˙"/>
<glyph glyph-name="ring" d="M294 599q16 1 26 11t11 26q-1 15 -11 26t-26 11t-26 -11t-10 -26q0 -16 10 -26t26 -11zM294 541h-3q-37 0 -64 27q-28 28 -28 67q-1 40 27 68t68 28t68 -28t28 -67q0 -40 -28 -68t-68 -27z" unicode="˚"/>
<glyph glyph-name="ogonek" d="M372 0q-32 -16 -44 -29q-24 -27 -24 -65q0 -39 37 -39q23 0 44 12l18 -40q-45 -24 -87 -24q-44 0 -70 22t-26 59q0 46 38 76q13 12 51 28h63z" unicode="˛"/>
<glyph glyph-name="tilde" d="M394 673l31 -40q-47 -69 -98 -69q-20 0 -45 15t-43 15q-24 0 -50 -25l-31 43q44 55 90 55q19 0 52 -16q29 -14 43 -14q24 0 51 36z" unicode="˜"/>
<glyph glyph-name="hungarumlaut" d="M322 588l122 114l44 -64l-133 -91zM172 588l122 114l44 -64l-133 -91z" unicode="˝"/>
<glyph glyph-name="uni03A9" horiz-adv-x="574" unicode="Ω" d="M108 96v3q-58 86 -58 196q0 37 6 76q22 129 106 217t194 89q78 0 126 -47t62 -113q8 -36 8 -74q0 -31 -5 -64q-14 -85 -55 -159t-90 -121l-1 -3h111l-16 -96h-216l12 70q43 30 81 102t56 180q6 39 6 72q0 49 -13 88q-22 65 -84 65q-61 -1 -108 -65t-64 -165 q-8 -56 -8 -103q0 -42 6 -75q14 -71 46 -99l-12 -70h-215l16 96h109z"/>
<glyph glyph-name="uni03BC" horiz-adv-x="392" unicode="μ" d="M390 492l-83 -493h-118l9 56q-14 -20 -22 -30q-8 -11 -24 -23q-18 -12 -37 -14l-27 -155h-123l110 659h124l-53 -317q-9 -58 -9 -66q0 -22 22 -22q18 0 30 21q13 21 24 87l50 297h127z"/>
<glyph glyph-name="pi" horiz-adv-x="507" unicode="π" d="M507 400h-58l-45 -267q-12 -71 -12 -115q0 -10 1 -18h-108q-4 11 -4 32q0 36 11 99l45 269h-110q-19 -90 -53 -208t-69 -192h-107q36 84 70 202t49 198q-53 0 -80 -8v79q46 31 144 31h351z"/>
<glyph glyph-name="uni2010" horiz-adv-x="255" unicode="‐" d="M46 328h190l-19 -108h-189z"/>
<glyph glyph-name="endash" horiz-adv-x="391" unicode="–" d="M51 328h316l-17 -108h-318z"/>
<glyph glyph-name="emdash" horiz-adv-x="579" unicode="—" d="M51 328h504l-19 -108h-504z"/>
<glyph glyph-name="quoteleft" horiz-adv-x="204" unicode="‘" d="M180 396h-114l24 142l85 135h58l-75 -135h46z"/>
<glyph glyph-name="quoteright" horiz-adv-x="204" unicode="’" d="M118 667h114l-24 -144l-85 -134h-58l75 134h-46z"/>
<glyph glyph-name="quotesinglbase" horiz-adv-x="204" unicode="‚" d="M144 144l-24 -144l-84 -134h-58l74 134h-46l24 144h114z"/>
<glyph glyph-name="quotedblleft" horiz-adv-x="357" unicode="“" d="M180 396h-114l24 142l85 135h58l-75 -135h46zM334 396h-114l24 142l84 135h57l-73 -135h46z"/>
<glyph glyph-name="quotedblright" horiz-adv-x="357" unicode="”" d="M271 667h114l-23 -144l-85 -134h-58l74 134h-46zM118 667h114l-24 -144l-85 -134h-58l75 134h-46z"/>
<glyph glyph-name="quotedblbase" horiz-adv-x="357" unicode="„" d="M184 144h113l-24 -144l-84 -134h-57l74 134h-46zM30 144h114l-24 -144l-84 -134h-58l74 134h-46z"/>
<glyph glyph-name="dagger" d="M238 667h123l-30 -181h120l-18 -106h-120l-91 -547h-124l92 547h-120l17 106h121z" unicode="†"/>
<glyph glyph-name="daggerdbl" d="M238 667h124l-31 -181h121l-19 -106h-120l-43 -260h120l-18 -106h-120l-30 -181h-124l31 181h-120l18 106h119l44 260h-120l18 106h120z" unicode="‡"/>
<glyph glyph-name="bullet" horiz-adv-x="221" unicode="•" d="M178 258h-135v151h135v-151z"/>
<glyph glyph-name="ellipsis" horiz-adv-x="675" unicode="…" d="M445 0l25 149h132l-25 -149h-132zM220 0l25 149h132l-25 -149h-132zM-5 0l25 149h132l-25 -149h-132z"/>
<glyph glyph-name="perthousand" horiz-adv-x="851" unicode="‰" d="M473 667h65l-404 -667h-65zM706 258q-23 -2 -39 -46t-16 -102q0 -48 24 -48q23 0 39 44t16 107q0 45 -23 45h-1zM718 331q95 -3 95 -126q0 -96 -40 -157t-102 -61q-49 0 -76 34t-27 94q0 95 40 155t105 61h5zM433 258q-22 -2 -38 -46t-16 -102q0 -48 23 -48q22 0 38 45 t16 106q0 45 -21 45h-2zM445 331q96 -3 96 -126q0 -96 -40 -157t-103 -61q-48 0 -76 34t-27 94q0 95 41 155t105 61h4zM203 605q-21 -1 -37 -45t-16 -102q0 -50 23 -50q22 0 38 46t16 107q0 44 -22 44h-2zM215 679q96 -3 96 -126q0 -96 -40 -157t-103 -61q-48 0 -76 34 t-27 94q0 95 41 155t105 61h4z"/>
<glyph glyph-name="guilsinglleft" horiz-adv-x="204" unicode="‹" d="M148 108h-64l-55 146l92 151h69l-62 -151z"/>
<glyph glyph-name="guilsinglright" horiz-adv-x="204" unicode="›" d="M58 405h64l56 -147l-93 -150h-68l61 150z"/>
<glyph glyph-name="fraction" horiz-adv-x="85" unicode="⁄" d="M224 667h69l-404 -667h-69z"/>
<glyph glyph-name="Euro" d="M331 316l-21 -67h-95q-2 -52 -2 -59q0 -100 50 -100q25 0 41 24t27 78l119 -24q-34 -106 -81 -144t-123 -38q-84 0 -122 58t-38 177v28h-72l21 67h56q1 16 5 48h-66l21 67h58q16 69 41 121q26 52 70 90q44 36 102 36q74 0 120 -45t46 -122v-22t-1 -14l-120 -8q1 11 1 35 q0 72 -45 72q-28 0 -49 -36q-22 -35 -37 -107h129l-21 -67h-119l-6 -48h111z" unicode="€"/>
<glyph glyph-name="afii61289" horiz-adv-x="429" unicode="ℓ" d="M232 487l-23 -138q116 124 132 223q3 16 3 28q0 46 -35 46q-50 0 -77 -159zM352 162l37 -46q-81 -127 -193 -127q-76 0 -106 45q-23 35 -24 86q0 14 2 29v6t1 6q-10 -8 -50 -38l-17 62q65 50 82 66l41 246q19 115 73 175t120 60q56 0 78 -46q13 -29 14 -69q0 -24 -5 -52 q-25 -149 -215 -326l-8 -50q-3 -18 -3 -34q0 -29 10 -47q15 -28 48 -27q54 0 115 81z"/>
<glyph glyph-name="trademark" horiz-adv-x="817" unicode="™" d="M368 267v400h123l32 -169q10 -53 14 -114q7 68 19 122l37 161h119v-400h-85v227q0 10 2 52t3 69q-16 -107 -19 -117l-53 -231h-56l-50 234q-6 31 -17 114v-26q1 -20 1 -44q2 -40 1 -41v-237h-71zM266 591v-324h-89v324h-71v76h233v-76h-73z"/>
<glyph glyph-name="Omega" horiz-adv-x="574" unicode="Ω" d="M108 96v3q-58 86 -58 196q0 37 6 76q22 129 106 217t194 89q78 0 126 -47t62 -113q8 -36 8 -74q0 -31 -5 -64q-14 -85 -55 -159t-90 -121l-1 -3h111l-16 -96h-216l12 70q43 30 81 102t56 180q6 39 6 72q0 49 -13 88q-22 65 -84 65q-61 -1 -108 -65t-64 -165 q-8 -56 -8 -103q0 -42 6 -75q14 -71 46 -99l-12 -70h-215l16 96h109z"/>
<glyph glyph-name="estimated" horiz-adv-x="901" unicode="℮" d="M727 347v189q0 14 -10 23q-100 98 -233 98q-135 0 -234 -101q-10 -9 -10 -24v-185q0 -6 5 -6h477q5 0 5 6zM868 322h-623q-5 0 -5 -4v-188q0 -13 9 -22q99 -102 235 -102q148 0 248 115h55q-53 -62 -133 -98t-171 -36q-159 0 -271 101t-113 244q1 142 113 244t271 102 q161 0 273 -102t112 -244v-10z"/>
<glyph glyph-name="partialdiff" horiz-adv-x="486" unicode="∂" d="M187 90h1q42 0 81 64t59 147q-3 27 -22 49t-52 22q-42 0 -76 -49t-45 -114q-3 -19 -3 -35q0 -28 9 -50q14 -34 48 -34zM145 609l-15 91q73 52 162 52q96 0 148 -92q33 -59 33 -152q0 -53 -10 -116q-31 -189 -111 -295t-193 -106q-81 -1 -116 67q-25 47 -25 106q0 25 5 51 q21 115 85 183t141 69q42 0 69 -21t35 -43h1q3 12 6 30q5 32 5 61q0 52 -17 94q-27 66 -88 66q-60 0 -115 -45z"/>
<glyph glyph-name="uni2206" horiz-adv-x="548" unicode="∆" d="M106 95h270l-40 269q-2 25 -10 89t-8 86h-2q-8 -19 -34 -77t-37 -85zM-22 0l11 69l289 612h132l78 -609l-12 -72h-498z"/>
<glyph glyph-name="product" horiz-adv-x="675" unicode="∏" d="M651 560h-81v-652h-113v652h-175v-652h-112v652h-82v107h563v-107z"/>
<glyph glyph-name="summation" horiz-adv-x="530" unicode="∑" d="M515 -92h-428v78l201 304l-195 294v83h409v-98h-262v-3l173 -254l-195 -291v-3h297v-110z"/>
<glyph glyph-name="minus" d="M425 281h-363v105h363v-105z" unicode="−"/>
<glyph glyph-name="uni2215" horiz-adv-x="85" unicode="∕" d="M224 667h69l-404 -667h-69z"/>
<glyph glyph-name="uni2219" horiz-adv-x="221" unicode="∙" d="M46 259l25 149h132l-25 -149h-132z"/>
<glyph glyph-name="radical" horiz-adv-x="573" unicode="√" d="M576 803l-187 -933h-90l-122 417l-64 -25l-17 67l149 60l81 -289q2 -14 8 -45t9 -43l1 -1q12 86 14 95l141 697h77z"/>
<glyph glyph-name="infinity" horiz-adv-x="715" unicode="∞" d="M529 363h-1q-12 0 -26 -5q-14 -4 -24 -10t-22 -18l-18 -18t-17 -21q-12 -14 -15 -17q42 -52 68 -72t58 -20q34 0 56 28t21 60q0 41 -22 67t-58 26zM215 182h2q23 0 46 14t37 29t37 43q-44 59 -66 75q-27 20 -59 20q-37 0 -59 -26t-22 -67q1 -36 25 -62t59 -26zM673 276 v-1q-1 -70 -43 -113t-100 -43q-42 0 -79 22t-79 78q-40 -49 -78 -75t-87 -25q-57 0 -99 43t-41 109q0 68 42 111t106 43q84 0 159 -98q47 54 74 72q40 26 87 26q59 1 99 -41t39 -108z"/>
<glyph glyph-name="integral" horiz-adv-x="423" unicode="∫" d="M397 815l-12 -82q-14 7 -29 7q-26 0 -42 -24q-23 -30 -23 -161q0 -75 6 -223t6 -236q0 -133 -31 -193q-33 -68 -115 -68q-40 0 -66 15l14 85q24 -9 36 -9q24 0 36 19q22 35 22 148q-1 89 -7 241t-6 232q0 155 52 215q38 44 105 44q32 0 54 -10z"/>
<glyph glyph-name="approxequal" horiz-adv-x="490" unicode="≈" d="M417 255l40 -35q-19 -42 -49 -68t-67 -27q-39 0 -94 35q-47 31 -73 31q-18 1 -34 -11t-22 -22q-7 -10 -21 -32l-40 35q19 42 51 68t72 26q37 0 90 -32q6 -3 16 -10t15 -9t13 -7q8 -3 15 -5t14 -2q23 0 39 16t35 49zM417 422l40 -35q-19 -43 -49 -69t-67 -26q-41 0 -94 35 q-47 31 -73 31q-18 0 -34 -12t-22 -20q-7 -10 -21 -33l-40 35q19 42 51 68t72 26q37 0 90 -32q2 -2 10 -7t11 -7t9 -4l9 -6t8 -4t9 -2t8 -2q5 -1 9 -1q23 0 39 16t35 49z"/>
<glyph glyph-name="notequal" horiz-adv-x="502" unicode="≠" d="M381 476l-33 -78h113v-67h-136l-51 -121h187v-67h-210l-42 -98l-51 19l33 79h-114v67h138l50 121h-188v67h211l41 97z"/>
<glyph glyph-name="lessequal" horiz-adv-x="515" unicode="≤" d="M476 -8h-384v68h384v-68zM472 95l-376 202v73l375 203v-80l-312 -158v-2l313 -158v-80z"/>
<glyph glyph-name="greaterequal" horiz-adv-x="515" unicode="≥" d="M475 -8h-382v68h382v-68zM98 573l376 -203v-73l-376 -202v80l312 158v2l-312 158v80z"/>
<glyph glyph-name="lozenge" horiz-adv-x="571" unicode="◊" d="M429 331l-90 218q-12 37 -16 63h-3q-7 -33 -17 -63l-92 -213l91 -223q10 -35 14 -60h5q8 41 15 58zM529 333l-166 -377h-93l-159 377l166 378h92z"/>
<glyph glyph-name="fi" horiz-adv-x="442" unicode="ﬁ" d="M477 674l-23 -136h-131l23 136h131zM316 493h130l-83 -493h-129zM282 493l-17 -108h-57l-65 -385h-131l65 385h-44l18 108h44q14 89 36 135q36 69 139 69q16 0 45 -5l-19 -109h-20q-18 -1 -34 -21t-20 -69h60z"/>
<glyph glyph-name="fl" horiz-adv-x="442" unicode="ﬂ" d="M345 667h131l-113 -667h-129zM282 493l-17 -108h-57l-65 -385h-131l65 385h-44l18 108h44q14 89 36 135q36 69 139 69q16 0 45 -5l-19 -109h-20q-18 -1 -34 -21t-20 -69h60z"/>
<glyph glyph-name="one.superior" d="M300 344l-13 -77h-228l13 77h65l34 199q-35 -11 -63 -11h-8t-8 1l14 82q44 1 72 15q18 9 35 39h74l-54 -325h67z" horiz-adv-x="306"/>
<glyph glyph-name="two.superior" d="M299 351l-15 -84h-244l15 85q75 50 134 117q41 45 41 91q0 34 -23 34q-13 0 -23 -13q-10 -17 -19 -62l-89 20q8 51 27 80q34 55 108 55q56 0 87 -30t31 -83q0 -60 -45 -111q-50 -55 -114 -99h129z" horiz-adv-x="306"/>
<glyph glyph-name="three.superior" d="M157 549l-79 26q19 53 50 75t83 23q53 1 81 -25t29 -75q0 -75 -63 -100q47 -29 47 -83q0 -59 -37 -95t-98 -36q-65 0 -98 38q-14 16 -20 32t-11 51l83 18q9 -61 44 -61q18 0 28 14t11 38q0 49 -55 49h-17l12 72q13 -1 24 -1q29 0 41 14t13 46q0 33 -25 33q-14 0 -24 -12 t-19 -41z" horiz-adv-x="306"/>
<glyph glyph-name="a.superior" d="M209 433q0 -25 20 -25q13 0 21 15t15 53l4 23q-60 -11 -60 -66zM230 560l-94 13q27 106 133 106q49 -1 79 -25t29 -65q0 -15 -3 -32l-4 -23l-19 -112q-6 -40 -6 -48q0 -7 3 -28h-88q-2 9 -2 18v11q-21 -21 -35 -27t-35 -6q-38 0 -60 22t-23 59q0 43 35 80q37 37 129 45 l8 1q4 18 4 35q0 28 -20 28q-21 0 -26 -29z" horiz-adv-x="425"/>
<glyph glyph-name="o.superior" d="M210 434q0 -24 14 -24q10 0 16 14t14 54q13 69 13 105q0 23 -14 23q-11 0 -17 -12t-12 -47q-14 -67 -14 -113zM109 477q-1 94 39 148t108 54h8q50 -2 77 -37t27 -96q0 -96 -40 -152t-106 -57q-113 0 -113 140z" horiz-adv-x="425"/>
</font>
</defs>
</svg>
